solid Коил коллизия с учетом провода
   facet normal -1.447742e-014 -1.000000e+000 0.000000e+000
      outer loop
         vertex 1.345600e-002 -1.947957e-016 -4.805942e-002
         vertex 1.249839e-002 -1.809320e-016 -3.355942e-002
         vertex -1.345600e-002 1.948205e-016 -4.805942e-002
      endloop
   endfacet
   facet normal -1.447742e-014 -1.000000e+000 0.000000e+000
      outer loop
         vertex -1.345600e-002 1.948205e-016 -4.805942e-002
         vertex 1.249839e-002 -1.809320e-016 -3.355942e-002
         vertex -1.250161e-002 1.810035e-016 -3.355942e-002
      endloop
   endfacet
   facet normal -1.447742e-014 -1.000000e+000 0.000000e+000
      outer loop
         vertex -1.345600e-002 1.948205e-016 -4.805942e-002
         vertex -1.250161e-002 1.810035e-016 -3.355942e-002
         vertex -2.845600e-002 4.119818e-016 -3.305942e-002
      endloop
   endfacet
   facet normal -1.447742e-014 -1.000000e+000 0.000000e+000
      outer loop
         vertex 1.249839e-002 -1.809320e-016 -8.559420e-003
         vertex 3.395173e-014 1.244202e-020 2.940580e-003
         vertex -1.250161e-002 1.810035e-016 -8.559420e-003
      endloop
   endfacet
   facet normal -1.447742e-014 -1.000000e+000 0.000000e+000
      outer loop
         vertex -1.250161e-002 1.810035e-016 -8.559420e-003
         vertex 3.395173e-014 1.244202e-020 2.940580e-003
         vertex -1.854498e-002 2.684958e-016 4.499830e-004
      endloop
   endfacet
   facet normal -1.447742e-014 -1.000000e+000 0.000000e+000
      outer loop
         vertex -1.250161e-002 1.810035e-016 -8.559420e-003
         vertex -1.854498e-002 2.684958e-016 4.499830e-004
         vertex -1.250161e-002 1.810035e-016 -3.355942e-002
      endloop
   endfacet
   facet normal -1.447742e-014 -1.000000e+000 0.000000e+000
      outer loop
         vertex -1.250161e-002 1.810035e-016 -3.355942e-002
         vertex -1.854498e-002 2.684958e-016 4.499830e-004
         vertex -2.845600e-002 4.119818e-016 -1.519689e-002
      endloop
   endfacet
   facet normal -1.447742e-014 -1.000000e+000 0.000000e+000
      outer loop
         vertex -1.250161e-002 1.810035e-016 -3.355942e-002
         vertex -2.845600e-002 4.119818e-016 -1.519689e-002
         vertex -2.845600e-002 4.119818e-016 -3.305942e-002
      endloop
   endfacet
   facet normal -1.447742e-014 -1.000000e+000 0.000000e+000
      outer loop
         vertex 1.345600e-002 -1.947957e-016 -4.805942e-002
         vertex 2.845600e-002 -4.119569e-016 -3.305942e-002
         vertex 1.249839e-002 -1.809320e-016 -3.355942e-002
      endloop
   endfacet
   facet normal -1.447742e-014 -1.000000e+000 0.000000e+000
      outer loop
         vertex 1.249839e-002 -1.809320e-016 -3.355942e-002
         vertex 2.845600e-002 -4.119569e-016 -3.305942e-002
         vertex 2.845600e-002 -4.119569e-016 -1.519689e-002
      endloop
   endfacet
   facet normal -1.447742e-014 -1.000000e+000 0.000000e+000
      outer loop
         vertex 1.249839e-002 -1.809320e-016 -3.355942e-002
         vertex 2.845600e-002 -4.119569e-016 -1.519689e-002
         vertex 1.249839e-002 -1.809320e-016 -8.559420e-003
      endloop
   endfacet
   facet normal -1.447742e-014 -1.000000e+000 0.000000e+000
      outer loop
         vertex 1.249839e-002 -1.809320e-016 -8.559420e-003
         vertex 2.845600e-002 -4.119569e-016 -1.519689e-002
         vertex 1.854498e-002 -2.684710e-016 4.499830e-004
      endloop
   endfacet
   facet normal -1.447742e-014 -1.000000e+000 0.000000e+000
      outer loop
         vertex 1.249839e-002 -1.809320e-016 -8.559420e-003
         vertex 1.854498e-002 -2.684710e-016 4.499830e-004
         vertex 3.395173e-014 1.244202e-020 2.940580e-003
      endloop
   endfacet
   facet normal 0.000000e+000 0.000000e+000 -1.000000e+000
      outer loop
         vertex 8.000000e-002 2.840520e-001 -4.805942e-002
         vertex 8.935200e-002 2.747000e-001 -4.805942e-002
         vertex 8.000000e-002 2.151104e-001 -4.805942e-002
      endloop
   endfacet
   facet normal 0.000000e+000 0.000000e+000 -1.000000e+000
      outer loop
         vertex 8.000000e-002 2.151104e-001 -4.805942e-002
         vertex 8.935200e-002 2.747000e-001 -4.805942e-002
         vertex 8.935200e-002 2.237610e-001 -4.805942e-002
      endloop
   endfacet
   facet normal 0.000000e+000 0.000000e+000 -1.000000e+000
      outer loop
         vertex 1.345600e-002 1.407000e-001 -4.805942e-002
         vertex 1.345600e-002 -1.947957e-016 -4.805942e-002
         vertex -1.345600e-002 1.407000e-001 -4.805942e-002
      endloop
   endfacet
   facet normal 0.000000e+000 0.000000e+000 -1.000000e+000
      outer loop
         vertex -1.345600e-002 1.407000e-001 -4.805942e-002
         vertex 1.345600e-002 -1.947957e-016 -4.805942e-002
         vertex -1.345600e-002 1.948205e-016 -4.805942e-002
      endloop
   endfacet
   facet normal 6.982962e-015 1.000000e+000 0.000000e+000
      outer loop
         vertex 5.435200e-002 3.097000e-001 -4.358910e-003
         vertex 5.435200e-002 3.097000e-001 -4.164742e-002
         vertex 4.000000e-002 3.097000e-001 -3.805942e-002
      endloop
   endfacet
   facet normal 6.982962e-015 1.000000e+000 0.000000e+000
      outer loop
         vertex 5.435200e-002 3.097000e-001 -4.358910e-003
         vertex 4.000000e-002 3.097000e-001 -3.805942e-002
         vertex 3.611435e-014 3.097000e-001 2.940580e-003
      endloop
   endfacet
   facet normal 6.982962e-015 1.000000e+000 0.000000e+000
      outer loop
         vertex 3.611435e-014 3.097000e-001 2.940580e-003
         vertex 4.000000e-002 3.097000e-001 -3.805942e-002
         vertex 3.611435e-014 3.097000e-001 -3.085778e-002
      endloop
   endfacet
   facet normal 6.982962e-015 1.000000e+000 0.000000e+000
      outer loop
         vertex 3.611435e-014 3.097000e-001 2.940580e-003
         vertex 3.611435e-014 3.097000e-001 -3.085778e-002
         vertex -5.435200e-002 3.097000e-001 -4.358910e-003
      endloop
   endfacet
   facet normal 6.982962e-015 1.000000e+000 0.000000e+000
      outer loop
         vertex -5.435200e-002 3.097000e-001 -4.358910e-003
         vertex 3.611435e-014 3.097000e-001 -3.085778e-002
         vertex -4.000000e-002 3.097000e-001 -3.805942e-002
      endloop
   endfacet
   facet normal 6.982962e-015 1.000000e+000 0.000000e+000
      outer loop
         vertex -5.435200e-002 3.097000e-001 -4.358910e-003
         vertex -4.000000e-002 3.097000e-001 -3.805942e-002
         vertex -5.435200e-002 3.097000e-001 -4.164742e-002
      endloop
   endfacet
   facet normal 7.071068e-001 7.071068e-001 0.000000e+000
      outer loop
         vertex 5.435200e-002 3.097000e-001 -4.164742e-002
         vertex 5.435200e-002 3.097000e-001 -4.358910e-003
         vertex 8.000000e-002 2.840520e-001 -4.805942e-002
      endloop
   endfacet
   facet normal 7.071068e-001 7.071068e-001 0.000000e+000
      outer loop
         vertex 8.000000e-002 2.840520e-001 -4.805942e-002
         vertex 5.435200e-002 3.097000e-001 -4.358910e-003
         vertex 7.944099e-002 2.846110e-001 -7.728368e-003
      endloop
   endfacet
   facet normal 7.071068e-001 7.071068e-001 0.000000e+000
      outer loop
         vertex 8.000000e-002 2.840520e-001 -4.805942e-002
         vertex 7.944099e-002 2.846110e-001 -7.728368e-003
         vertex 8.935200e-002 2.747000e-001 -4.805942e-002
      endloop
   endfacet
   facet normal 7.071068e-001 7.071068e-001 0.000000e+000
      outer loop
         vertex 8.935200e-002 2.747000e-001 -4.805942e-002
         vertex 7.944099e-002 2.846110e-001 -7.728368e-003
         vertex 8.935200e-002 2.747000e-001 -1.905942e-002
      endloop
   endfacet
   facet normal 1.000000e+000 -6.982962e-015 0.000000e+000
      outer loop
         vertex 8.935200e-002 2.237610e-001 -1.905942e-002
         vertex 8.935200e-002 2.237610e-001 -4.805942e-002
         vertex 8.935200e-002 2.747000e-001 -1.905942e-002
      endloop
   endfacet
   facet normal 1.000000e+000 -6.982962e-015 0.000000e+000
      outer loop
         vertex 8.935200e-002 2.747000e-001 -1.905942e-002
         vertex 8.935200e-002 2.237610e-001 -4.805942e-002
         vertex 8.935200e-002 2.747000e-001 -4.805942e-002
      endloop
   endfacet
   facet normal 6.790420e-001 -7.340994e-001 0.000000e+000
      outer loop
         vertex 8.935200e-002 2.237610e-001 -4.805942e-002
         vertex 8.935200e-002 2.237610e-001 -1.905942e-002
         vertex 8.000000e-002 2.151104e-001 -4.805942e-002
      endloop
   endfacet
   facet normal 6.790420e-001 -7.340994e-001 0.000000e+000
      outer loop
         vertex 8.000000e-002 2.151104e-001 -4.805942e-002
         vertex 8.935200e-002 2.237610e-001 -1.905942e-002
         vertex 7.944099e-002 2.145933e-001 -7.728368e-003
      endloop
   endfacet
   facet normal 6.790420e-001 -7.340994e-001 0.000000e+000
      outer loop
         vertex 8.000000e-002 2.151104e-001 -4.805942e-002
         vertex 7.944099e-002 2.145933e-001 -7.728368e-003
         vertex 5.151756e-002 1.887641e-001 -4.093881e-002
      endloop
   endfacet
   facet normal 6.790420e-001 -7.340994e-001 0.000000e+000
      outer loop
         vertex 5.151756e-002 1.887641e-001 -4.093881e-002
         vertex 7.944099e-002 2.145933e-001 -7.728368e-003
         vertex 4.935201e-002 1.867610e-001 -3.687408e-003
      endloop
   endfacet
   facet normal 6.790420e-001 -7.340994e-001 0.000000e+000
      outer loop
         vertex 5.151756e-002 1.887641e-001 -4.093881e-002
         vertex 4.935201e-002 1.867610e-001 -3.687408e-003
         vertex 4.935201e-002 1.867610e-001 -4.123557e-002
      endloop
   endfacet
   facet normal -6.982962e-015 -1.000000e+000 0.000000e+000
      outer loop
         vertex 4.935201e-002 1.867610e-001 -4.123557e-002
         vertex 4.935201e-002 1.867610e-001 -3.687408e-003
         vertex 4.219294e-002 1.867610e-001 -4.123557e-002
      endloop
   endfacet
   facet normal -6.982962e-015 -1.000000e+000 0.000000e+000
      outer loop
         vertex 4.219294e-002 1.867610e-001 -4.123557e-002
         vertex 4.935201e-002 1.867610e-001 -3.687408e-003
         vertex 4.219294e-002 1.867610e-001 -2.725944e-003
      endloop
   endfacet
   facet normal 8.483441e-001 -5.294453e-001 0.000000e+000
      outer loop
         vertex 2.845600e-002 1.647499e-001 -3.305942e-002
         vertex 1.345891e-002 1.407197e-001 -4.805650e-002
         vertex 4.219294e-002 1.867610e-001 -4.123557e-002
      endloop
   endfacet
   facet normal 8.483441e-001 -5.294453e-001 0.000000e+000
      outer loop
         vertex 2.845600e-002 1.647499e-001 -3.305942e-002
         vertex 4.219294e-002 1.867610e-001 -4.123557e-002
         vertex 2.845600e-002 1.647499e-001 -1.519689e-002
      endloop
   endfacet
   facet normal 8.483441e-001 -5.294453e-001 0.000000e+000
      outer loop
         vertex 2.845600e-002 1.647499e-001 -1.519689e-002
         vertex 4.219294e-002 1.867610e-001 -4.123557e-002
         vertex 4.219294e-002 1.867610e-001 -2.725944e-003
      endloop
   endfacet
   facet normal 8.483441e-001 -5.294453e-001 0.000000e+000
      outer loop
         vertex 2.845600e-002 1.647499e-001 -1.519689e-002
         vertex 4.219294e-002 1.867610e-001 -2.725944e-003
         vertex 1.854498e-002 1.488692e-001 4.499830e-004
      endloop
   endfacet
   facet normal 1.000000e+000 -6.856609e-015 0.000000e+000
      outer loop
         vertex 2.845600e-002 2.121785e-017 -1.519689e-002
         vertex 2.845600e-002 2.121785e-017 -3.305942e-002
         vertex 2.845600e-002 1.647499e-001 -1.519689e-002
      endloop
   endfacet
   facet normal 1.000000e+000 -6.856609e-015 0.000000e+000
      outer loop
         vertex 2.845600e-002 1.647499e-001 -1.519689e-002
         vertex 2.845600e-002 2.121785e-017 -3.305942e-002
         vertex 2.845600e-002 1.647499e-001 -3.305942e-002
      endloop
   endfacet
   facet normal -1.000000e+000 6.856609e-015 0.000000e+000
      outer loop
         vertex -2.845600e-002 1.647499e-001 -1.519689e-002
         vertex -2.845600e-002 1.647499e-001 -3.305942e-002
         vertex -2.845600e-002 4.119818e-016 -1.519689e-002
      endloop
   endfacet
   facet normal -1.000000e+000 6.856609e-015 0.000000e+000
      outer loop
         vertex -2.845600e-002 4.119818e-016 -1.519689e-002
         vertex -2.845600e-002 1.647499e-001 -3.305942e-002
         vertex -2.845600e-002 4.119818e-016 -3.305942e-002
      endloop
   endfacet
   facet normal -8.483441e-001 -5.294453e-001 0.000000e+000
      outer loop
         vertex -4.219294e-002 1.867610e-001 -4.123557e-002
         vertex -1.345892e-002 1.407197e-001 -4.805650e-002
         vertex -2.845600e-002 1.647499e-001 -3.305942e-002
      endloop
   endfacet
   facet normal -8.483441e-001 -5.294453e-001 0.000000e+000
      outer loop
         vertex -4.219294e-002 1.867610e-001 -4.123557e-002
         vertex -2.845600e-002 1.647499e-001 -3.305942e-002
         vertex -4.219294e-002 1.867610e-001 -2.725944e-003
      endloop
   endfacet
   facet normal -8.483441e-001 -5.294453e-001 0.000000e+000
      outer loop
         vertex -4.219294e-002 1.867610e-001 -2.725944e-003
         vertex -2.845600e-002 1.647499e-001 -3.305942e-002
         vertex -2.845600e-002 1.647499e-001 -1.519689e-002
      endloop
   endfacet
   facet normal -8.483441e-001 -5.294453e-001 0.000000e+000
      outer loop
         vertex -4.219294e-002 1.867610e-001 -2.725944e-003
         vertex -2.845600e-002 1.647499e-001 -1.519689e-002
         vertex -1.854498e-002 1.488692e-001 4.499830e-004
      endloop
   endfacet
   facet normal -6.982962e-015 -1.000000e+000 0.000000e+000
      outer loop
         vertex -4.219294e-002 1.867610e-001 -4.123557e-002
         vertex -4.219294e-002 1.867610e-001 -2.725944e-003
         vertex -4.935200e-002 1.867610e-001 -4.123557e-002
      endloop
   endfacet
   facet normal -6.982962e-015 -1.000000e+000 0.000000e+000
      outer loop
         vertex -4.935200e-002 1.867610e-001 -4.123557e-002
         vertex -4.219294e-002 1.867610e-001 -2.725944e-003
         vertex -4.935200e-002 1.867610e-001 -3.687408e-003
      endloop
   endfacet
   facet normal -6.790420e-001 -7.340994e-001 0.000000e+000
      outer loop
         vertex -8.935200e-002 2.237610e-001 -1.905942e-002
         vertex -8.935200e-002 2.237610e-001 -4.805942e-002
         vertex -7.944098e-002 2.145933e-001 -7.728368e-003
      endloop
   endfacet
   facet normal -6.790420e-001 -7.340994e-001 0.000000e+000
      outer loop
         vertex -7.944098e-002 2.145933e-001 -7.728368e-003
         vertex -8.935200e-002 2.237610e-001 -4.805942e-002
         vertex -8.000000e-002 2.151104e-001 -4.805942e-002
      endloop
   endfacet
   facet normal -6.790420e-001 -7.340994e-001 0.000000e+000
      outer loop
         vertex -7.944098e-002 2.145933e-001 -7.728368e-003
         vertex -8.000000e-002 2.151104e-001 -4.805942e-002
         vertex -4.935200e-002 1.867610e-001 -3.687408e-003
      endloop
   endfacet
   facet normal -6.790420e-001 -7.340994e-001 0.000000e+000
      outer loop
         vertex -4.935200e-002 1.867610e-001 -3.687408e-003
         vertex -8.000000e-002 2.151104e-001 -4.805942e-002
         vertex -5.151756e-002 1.887641e-001 -4.093881e-002
      endloop
   endfacet
   facet normal -6.790420e-001 -7.340994e-001 0.000000e+000
      outer loop
         vertex -4.935200e-002 1.867610e-001 -3.687408e-003
         vertex -5.151756e-002 1.887641e-001 -4.093881e-002
         vertex -4.935200e-002 1.867610e-001 -4.123557e-002
      endloop
   endfacet
   facet normal -1.000000e+000 6.982962e-015 0.000000e+000
      outer loop
         vertex -8.935200e-002 2.747000e-001 -1.905942e-002
         vertex -8.935200e-002 2.747000e-001 -4.805942e-002
         vertex -8.935200e-002 2.237610e-001 -1.905942e-002
      endloop
   endfacet
   facet normal -1.000000e+000 6.982962e-015 0.000000e+000
      outer loop
         vertex -8.935200e-002 2.237610e-001 -1.905942e-002
         vertex -8.935200e-002 2.747000e-001 -4.805942e-002
         vertex -8.935200e-002 2.237610e-001 -4.805942e-002
      endloop
   endfacet
   facet normal -7.071068e-001 7.071068e-001 0.000000e+000
      outer loop
         vertex -8.935200e-002 2.747000e-001 -4.805942e-002
         vertex -8.935200e-002 2.747000e-001 -1.905942e-002
         vertex -8.000000e-002 2.840520e-001 -4.805942e-002
      endloop
   endfacet
   facet normal -7.071068e-001 7.071068e-001 0.000000e+000
      outer loop
         vertex -8.000000e-002 2.840520e-001 -4.805942e-002
         vertex -8.935200e-002 2.747000e-001 -1.905942e-002
         vertex -7.944098e-002 2.846110e-001 -7.728368e-003
      endloop
   endfacet
   facet normal -7.071068e-001 7.071068e-001 0.000000e+000
      outer loop
         vertex -8.000000e-002 2.840520e-001 -4.805942e-002
         vertex -7.944098e-002 2.846110e-001 -7.728368e-003
         vertex -5.435200e-002 3.097000e-001 -4.164742e-002
      endloop
   endfacet
   facet normal -7.071068e-001 7.071068e-001 0.000000e+000
      outer loop
         vertex -5.435200e-002 3.097000e-001 -4.164742e-002
         vertex -7.944098e-002 2.846110e-001 -7.728368e-003
         vertex -5.435200e-002 3.097000e-001 -4.358910e-003
      endloop
   endfacet
   facet normal 0.000000e+000 0.000000e+000 -1.000000e+000
      outer loop
         vertex -8.000000e-002 2.151104e-001 -4.805942e-002
         vertex -8.935200e-002 2.237610e-001 -4.805942e-002
         vertex -8.000000e-002 2.840520e-001 -4.805942e-002
      endloop
   endfacet
   facet normal 0.000000e+000 0.000000e+000 -1.000000e+000
      outer loop
         vertex -8.000000e-002 2.840520e-001 -4.805942e-002
         vertex -8.935200e-002 2.237610e-001 -4.805942e-002
         vertex -8.935200e-002 2.747000e-001 -4.805942e-002
      endloop
   endfacet
   facet normal -1.331053e-001 9.294692e-016 9.911019e-001
      outer loop
         vertex -1.854498e-002 2.684961e-016 4.499830e-004
         vertex 3.395173e-014 -3.388132e-021 2.940580e-003
         vertex -1.854498e-002 1.488692e-001 4.499830e-004
      endloop
   endfacet
   facet normal -1.331053e-001 9.294692e-016 9.911019e-001
      outer loop
         vertex -1.854498e-002 1.488692e-001 4.499830e-004
         vertex 3.395173e-014 -3.388132e-021 2.940580e-003
         vertex 3.611435e-014 3.097000e-001 2.940580e-003
      endloop
   endfacet
   facet normal -1.331053e-001 9.294692e-016 9.911019e-001
      outer loop
         vertex -7.944098e-002 2.846110e-001 -7.728368e-003
         vertex -7.944098e-002 2.145933e-001 -7.728368e-003
         vertex -5.435200e-002 3.097000e-001 -4.358910e-003
      endloop
   endfacet
   facet normal -1.331053e-001 9.294692e-016 9.911019e-001
      outer loop
         vertex -5.435200e-002 3.097000e-001 -4.358910e-003
         vertex -7.944098e-002 2.145933e-001 -7.728368e-003
         vertex -4.935200e-002 1.867610e-001 -3.687408e-003
      endloop
   endfacet
   facet normal -1.331053e-001 9.294692e-016 9.911019e-001
      outer loop
         vertex -5.435200e-002 3.097000e-001 -4.358910e-003
         vertex -4.935200e-002 1.867610e-001 -3.687408e-003
         vertex 3.611435e-014 3.097000e-001 2.940580e-003
      endloop
   endfacet
   facet normal -1.331053e-001 9.294692e-016 9.911019e-001
      outer loop
         vertex 3.611435e-014 3.097000e-001 2.940580e-003
         vertex -4.935200e-002 1.867610e-001 -3.687408e-003
         vertex -4.219294e-002 1.867610e-001 -2.725944e-003
      endloop
   endfacet
   facet normal -1.331053e-001 9.294692e-016 9.911019e-001
      outer loop
         vertex 3.611435e-014 3.097000e-001 2.940580e-003
         vertex -4.219294e-002 1.867610e-001 -2.725944e-003
         vertex -1.854498e-002 1.488692e-001 4.499830e-004
      endloop
   endfacet
   facet normal 1.331053e-001 -9.294692e-016 9.911019e-001
      outer loop
         vertex 3.611435e-014 3.097000e-001 2.940580e-003
         vertex 3.395173e-014 -3.388132e-021 2.940580e-003
         vertex 1.854498e-002 1.488692e-001 4.499830e-004
      endloop
   endfacet
   facet normal 1.331053e-001 -9.294692e-016 9.911019e-001
      outer loop
         vertex 1.854498e-002 1.488692e-001 4.499830e-004
         vertex 3.395173e-014 -3.388132e-021 2.940580e-003
         vertex 1.854498e-002 -2.684707e-016 4.499830e-004
      endloop
   endfacet
   facet normal 1.331053e-001 -9.294692e-016 9.911019e-001
      outer loop
         vertex 4.935201e-002 1.867610e-001 -3.687408e-003
         vertex 7.944099e-002 2.145933e-001 -7.728368e-003
         vertex 7.944099e-002 2.846110e-001 -7.728368e-003
      endloop
   endfacet
   facet normal 1.331053e-001 -9.294692e-016 9.911019e-001
      outer loop
         vertex 1.854498e-002 1.488692e-001 4.499830e-004
         vertex 4.219294e-002 1.867610e-001 -2.725944e-003
         vertex 3.611435e-014 3.097000e-001 2.940580e-003
      endloop
   endfacet
   facet normal 1.331053e-001 -9.294692e-016 9.911019e-001
      outer loop
         vertex 3.611435e-014 3.097000e-001 2.940580e-003
         vertex 4.219294e-002 1.867610e-001 -2.725944e-003
         vertex 4.935201e-002 1.867610e-001 -3.687408e-003
      endloop
   endfacet
   facet normal 1.331053e-001 -9.294692e-016 9.911019e-001
      outer loop
         vertex 3.611435e-014 3.097000e-001 2.940580e-003
         vertex 4.935201e-002 1.867610e-001 -3.687408e-003
         vertex 5.435200e-002 3.097000e-001 -4.358910e-003
      endloop
   endfacet
   facet normal 1.331053e-001 -9.294692e-016 9.911019e-001
      outer loop
         vertex 5.435200e-002 3.097000e-001 -4.358910e-003
         vertex 4.935201e-002 1.867610e-001 -3.687408e-003
         vertex 7.944099e-002 2.846110e-001 -7.728368e-003
      endloop
   endfacet
   facet normal 2.425356e-001 -1.693617e-015 -9.701425e-001
      outer loop
         vertex -4.800000e-002 1.947000e-001 -4.005942e-002
         vertex -5.151756e-002 1.887641e-001 -4.093881e-002
         vertex -8.000000e-002 2.151104e-001 -4.805942e-002
      endloop
   endfacet
   facet normal 2.425356e-001 -1.693617e-015 -9.701425e-001
      outer loop
         vertex -4.000000e-002 3.097000e-001 -3.805942e-002
         vertex -4.000000e-002 1.947000e-001 -3.805942e-002
         vertex -5.435200e-002 3.097000e-001 -4.164742e-002
      endloop
   endfacet
   facet normal 2.425356e-001 -1.693617e-015 -9.701425e-001
      outer loop
         vertex -5.435200e-002 3.097000e-001 -4.164742e-002
         vertex -4.000000e-002 1.947000e-001 -3.805942e-002
         vertex -4.800000e-002 1.947000e-001 -4.005942e-002
      endloop
   endfacet
   facet normal 2.425356e-001 -1.693617e-015 -9.701425e-001
      outer loop
         vertex -5.435200e-002 3.097000e-001 -4.164742e-002
         vertex -4.800000e-002 1.947000e-001 -4.005942e-002
         vertex -8.000000e-002 2.840520e-001 -4.805942e-002
      endloop
   endfacet
   facet normal 2.425356e-001 -1.693617e-015 -9.701425e-001
      outer loop
         vertex -8.000000e-002 2.840520e-001 -4.805942e-002
         vertex -4.800000e-002 1.947000e-001 -4.005942e-002
         vertex -8.000000e-002 2.151104e-001 -4.805942e-002
      endloop
   endfacet
   facet normal 6.982962e-015 1.000000e+000 0.000000e+000
      outer loop
         vertex 4.800000e-002 1.947000e-001 -4.005942e-002
         vertex -4.800000e-002 1.947000e-001 -4.005942e-002
         vertex 4.000000e-002 1.947000e-001 -3.805942e-002
      endloop
   endfacet
   facet normal 6.982962e-015 1.000000e+000 0.000000e+000
      outer loop
         vertex 4.000000e-002 1.947000e-001 -3.805942e-002
         vertex -4.800000e-002 1.947000e-001 -4.005942e-002
         vertex -4.000000e-002 1.947000e-001 -3.805942e-002
      endloop
   endfacet
   facet normal 6.982962e-015 1.000000e+000 0.000000e+000
      outer loop
         vertex 4.000000e-002 1.947000e-001 -3.805942e-002
         vertex -4.000000e-002 1.947000e-001 -3.805942e-002
         vertex 3.531131e-014 1.947000e-001 -3.085778e-002
      endloop
   endfacet
   facet normal -2.425356e-001 1.693617e-015 -9.701425e-001
      outer loop
         vertex 8.000000e-002 2.151104e-001 -4.805942e-002
         vertex 5.151756e-002 1.887641e-001 -4.093881e-002
         vertex 8.000000e-002 2.840520e-001 -4.805942e-002
      endloop
   endfacet
   facet normal -2.425356e-001 1.693617e-015 -9.701425e-001
      outer loop
         vertex 8.000000e-002 2.840520e-001 -4.805942e-002
         vertex 5.151756e-002 1.887641e-001 -4.093881e-002
         vertex 4.800000e-002 1.947000e-001 -4.005942e-002
      endloop
   endfacet
   facet normal -2.425356e-001 1.693617e-015 -9.701425e-001
      outer loop
         vertex 8.000000e-002 2.840520e-001 -4.805942e-002
         vertex 4.800000e-002 1.947000e-001 -4.005942e-002
         vertex 5.435200e-002 3.097000e-001 -4.164742e-002
      endloop
   endfacet
   facet normal -2.425356e-001 1.693617e-015 -9.701425e-001
      outer loop
         vertex 5.435200e-002 3.097000e-001 -4.164742e-002
         vertex 4.800000e-002 1.947000e-001 -4.005942e-002
         vertex 4.000000e-002 1.947000e-001 -3.805942e-002
      endloop
   endfacet
   facet normal -2.425356e-001 1.693617e-015 -9.701425e-001
      outer loop
         vertex 5.435200e-002 3.097000e-001 -4.164742e-002
         vertex 4.000000e-002 1.947000e-001 -3.805942e-002
         vertex 4.000000e-002 3.097000e-001 -3.805942e-002
      endloop
   endfacet
   facet normal -1.771921e-001 1.237326e-015 -9.841763e-001
      outer loop
         vertex 4.000000e-002 1.947000e-001 -3.805942e-002
         vertex 3.531131e-014 1.947000e-001 -3.085778e-002
         vertex 4.000000e-002 3.097000e-001 -3.805942e-002
      endloop
   endfacet
   facet normal -1.771921e-001 1.237326e-015 -9.841763e-001
      outer loop
         vertex 4.000000e-002 3.097000e-001 -3.805942e-002
         vertex 3.531131e-014 1.947000e-001 -3.085778e-002
         vertex 3.611435e-014 3.097000e-001 -3.085778e-002
      endloop
   endfacet
   facet normal 1.771921e-001 -1.237326e-015 -9.841763e-001
      outer loop
         vertex 3.531131e-014 1.947000e-001 -3.085778e-002
         vertex -4.000000e-002 1.947000e-001 -3.805942e-002
         vertex 3.611435e-014 3.097000e-001 -3.085778e-002
      endloop
   endfacet
   facet normal 1.771921e-001 -1.237326e-015 -9.841763e-001
      outer loop
         vertex 3.611435e-014 3.097000e-001 -3.085778e-002
         vertex -4.000000e-002 1.947000e-001 -3.805942e-002
         vertex -4.000000e-002 3.097000e-001 -3.805942e-002
      endloop
   endfacet
   facet normal 7.071068e-001 -4.848355e-015 -7.071068e-001
      outer loop
         vertex 2.845600e-002 2.121785e-017 -3.305942e-002
         vertex 1.345600e-002 -1.947957e-016 -4.805942e-002
         vertex 2.845600e-002 1.647499e-001 -3.305942e-002
      endloop
   endfacet
   facet normal 7.071068e-001 -4.848355e-015 -7.071068e-001
      outer loop
         vertex 2.845600e-002 1.647499e-001 -3.305942e-002
         vertex 1.345600e-002 -1.947957e-016 -4.805942e-002
         vertex 1.345600e-002 1.407000e-001 -4.805942e-002
      endloop
   endfacet
   facet normal 7.071068e-001 -4.848355e-015 -7.071068e-001
      outer loop
         vertex 2.845600e-002 1.647499e-001 -3.305942e-002
         vertex 1.345600e-002 1.407000e-001 -4.805942e-002
         vertex 1.345891e-002 1.407197e-001 -4.805650e-002
      endloop
   endfacet
   facet normal -7.071068e-001 4.848355e-015 -7.071068e-001
      outer loop
         vertex -1.345600e-002 1.948205e-016 -4.805942e-002
         vertex -2.845600e-002 4.119818e-016 -3.305942e-002
         vertex -1.345600e-002 1.407000e-001 -4.805942e-002
      endloop
   endfacet
   facet normal -7.071068e-001 4.848355e-015 -7.071068e-001
      outer loop
         vertex -1.345600e-002 1.407000e-001 -4.805942e-002
         vertex -2.845600e-002 4.119818e-016 -3.305942e-002
         vertex -2.845600e-002 1.647499e-001 -3.305942e-002
      endloop
   endfacet
   facet normal -7.071068e-001 4.848355e-015 -7.071068e-001
      outer loop
         vertex -1.345600e-002 1.407000e-001 -4.805942e-002
         vertex -2.845600e-002 1.647499e-001 -3.305942e-002
         vertex -1.345892e-002 1.407197e-001 -4.805650e-002
      endloop
   endfacet
   facet normal 8.447865e-001 -5.801451e-015 5.351035e-001
      outer loop
         vertex 1.854498e-002 -2.684710e-016 4.499830e-004
         vertex 2.845600e-002 2.121785e-017 -1.519689e-002
         vertex 1.854498e-002 1.488692e-001 4.499830e-004
      endloop
   endfacet
   facet normal 8.447865e-001 -5.801451e-015 5.351035e-001
      outer loop
         vertex 1.854498e-002 1.488692e-001 4.499830e-004
         vertex 2.845600e-002 2.121785e-017 -1.519689e-002
         vertex 2.845600e-002 1.647499e-001 -1.519689e-002
      endloop
   endfacet
   facet normal -8.447865e-001 5.801451e-015 5.351035e-001
      outer loop
         vertex -1.854498e-002 1.488692e-001 4.499830e-004
         vertex -2.845600e-002 1.647499e-001 -1.519689e-002
         vertex -1.854498e-002 2.684958e-016 4.499830e-004
      endloop
   endfacet
   facet normal -8.447865e-001 5.801451e-015 5.351035e-001
      outer loop
         vertex -1.854498e-002 2.684958e-016 4.499830e-004
         vertex -2.845600e-002 1.647499e-001 -1.519689e-002
         vertex -2.845600e-002 4.119818e-016 -1.519689e-002
      endloop
   endfacet
   facet normal 1.023344e-015 1.465487e-001 -9.892035e-001
      outer loop
         vertex -4.935200e-002 1.867610e-001 -4.123557e-002
         vertex -5.151756e-002 1.887641e-001 -4.093881e-002
         vertex -4.219294e-002 1.867610e-001 -4.123557e-002
      endloop
   endfacet
   facet normal 1.023344e-015 1.465487e-001 -9.892035e-001
      outer loop
         vertex -4.219294e-002 1.867610e-001 -4.123557e-002
         vertex -5.151756e-002 1.887641e-001 -4.093881e-002
         vertex -4.800000e-002 1.947000e-001 -4.005942e-002
      endloop
   endfacet
   facet normal 1.023344e-015 1.465487e-001 -9.892035e-001
      outer loop
         vertex 5.151756e-002 1.887641e-001 -4.093881e-002
         vertex 4.935201e-002 1.867610e-001 -4.123557e-002
         vertex 4.800000e-002 1.947000e-001 -4.005942e-002
      endloop
   endfacet
   facet normal 1.023344e-015 1.465487e-001 -9.892035e-001
      outer loop
         vertex 4.800000e-002 1.947000e-001 -4.005942e-002
         vertex 4.935201e-002 1.867610e-001 -4.123557e-002
         vertex 4.219294e-002 1.867610e-001 -4.123557e-002
      endloop
   endfacet
   facet normal 1.023344e-015 1.465487e-001 -9.892035e-001
      outer loop
         vertex 1.345600e-002 1.407000e-001 -4.805942e-002
         vertex -1.345600e-002 1.407000e-001 -4.805942e-002
         vertex 1.345891e-002 1.407197e-001 -4.805650e-002
      endloop
   endfacet
   facet normal 1.023344e-015 1.465487e-001 -9.892035e-001
      outer loop
         vertex 1.345891e-002 1.407197e-001 -4.805650e-002
         vertex -1.345600e-002 1.407000e-001 -4.805942e-002
         vertex -1.345892e-002 1.407197e-001 -4.805650e-002
      endloop
   endfacet
   facet normal 1.023344e-015 1.465487e-001 -9.892035e-001
      outer loop
         vertex 1.345891e-002 1.407197e-001 -4.805650e-002
         vertex -1.345892e-002 1.407197e-001 -4.805650e-002
         vertex 4.219294e-002 1.867610e-001 -4.123557e-002
      endloop
   endfacet
   facet normal 1.023344e-015 1.465487e-001 -9.892035e-001
      outer loop
         vertex 4.219294e-002 1.867610e-001 -4.123557e-002
         vertex -1.345892e-002 1.407197e-001 -4.805650e-002
         vertex -4.219294e-002 1.867610e-001 -4.123557e-002
      endloop
   endfacet
   facet normal 1.023344e-015 1.465487e-001 -9.892035e-001
      outer loop
         vertex 4.219294e-002 1.867610e-001 -4.123557e-002
         vertex -4.219294e-002 1.867610e-001 -4.123557e-002
         vertex 4.800000e-002 1.947000e-001 -4.005942e-002
      endloop
   endfacet
   facet normal 1.023344e-015 1.465487e-001 -9.892035e-001
      outer loop
         vertex 4.800000e-002 1.947000e-001 -4.005942e-002
         vertex -4.219294e-002 1.867610e-001 -4.123557e-002
         vertex -4.800000e-002 1.947000e-001 -4.005942e-002
      endloop
   endfacet
   facet normal 7.526969e-001 -5.256055e-015 6.583672e-001
      outer loop
         vertex 8.935200e-002 2.747000e-001 -1.905942e-002
         vertex 7.944099e-002 2.846110e-001 -7.728368e-003
         vertex 8.935200e-002 2.237610e-001 -1.905942e-002
      endloop
   endfacet
   facet normal 7.526969e-001 -5.256055e-015 6.583672e-001
      outer loop
         vertex 8.935200e-002 2.237610e-001 -1.905942e-002
         vertex 7.944099e-002 2.846110e-001 -7.728368e-003
         vertex 7.944099e-002 2.145933e-001 -7.728368e-003
      endloop
   endfacet
   facet normal -7.526969e-001 5.256055e-015 6.583672e-001
      outer loop
         vertex -7.944098e-002 2.846110e-001 -7.728368e-003
         vertex -8.935200e-002 2.747000e-001 -1.905942e-002
         vertex -7.944098e-002 2.145933e-001 -7.728368e-003
      endloop
   endfacet
   facet normal -7.526969e-001 5.256055e-015 6.583672e-001
      outer loop
         vertex -7.944098e-002 2.145933e-001 -7.728368e-003
         vertex -8.935200e-002 2.747000e-001 -1.905942e-002
         vertex -8.935200e-002 2.237610e-001 -1.905942e-002
      endloop
   endfacet
   facet normal 1.000000e+000 -1.447742e-014 0.000000e+000
      outer loop
         vertex 1.249839e-002 -6.000000e-002 -8.559420e-003
         vertex 1.249839e-002 -6.000000e-002 -3.355942e-002
         vertex 1.249839e-002 -1.844203e-016 -8.559420e-003
      endloop
   endfacet
   facet normal 1.000000e+000 -1.447742e-014 0.000000e+000
      outer loop
         vertex 1.249839e-002 -1.844203e-016 -8.559420e-003
         vertex 1.249839e-002 -6.000000e-002 -3.355942e-002
         vertex 1.249839e-002 -1.844203e-016 -3.355942e-002
      endloop
   endfacet
   facet normal 0.000000e+000 0.000000e+000 1.000000e+000
      outer loop
         vertex -1.250161e-002 -6.000000e-002 -8.559420e-003
         vertex 1.249839e-002 -6.000000e-002 -8.559420e-003
         vertex -1.250161e-002 1.844428e-016 -8.559420e-003
      endloop
   endfacet
   facet normal 0.000000e+000 0.000000e+000 1.000000e+000
      outer loop
         vertex -1.250161e-002 1.844428e-016 -8.559420e-003
         vertex 1.249839e-002 -6.000000e-002 -8.559420e-003
         vertex 1.249839e-002 -1.844203e-016 -8.559420e-003
      endloop
   endfacet
   facet normal -1.000000e+000 1.447742e-014 0.000000e+000
      outer loop
         vertex -1.250161e-002 -6.000000e-002 -3.355942e-002
         vertex -1.250161e-002 -6.000000e-002 -8.559420e-003
         vertex -1.250161e-002 1.844428e-016 -3.355942e-002
      endloop
   endfacet
   facet normal -1.000000e+000 1.447742e-014 0.000000e+000
      outer loop
         vertex -1.250161e-002 1.844428e-016 -3.355942e-002
         vertex -1.250161e-002 -6.000000e-002 -8.559420e-003
         vertex -1.250161e-002 1.844428e-016 -8.559420e-003
      endloop
   endfacet
   facet normal 0.000000e+000 0.000000e+000 -1.000000e+000
      outer loop
         vertex 1.249839e-002 -6.000000e-002 -3.355942e-002
         vertex -1.250161e-002 -6.000000e-002 -3.355942e-002
         vertex 1.249839e-002 -1.844203e-016 -3.355942e-002
      endloop
   endfacet
   facet normal 0.000000e+000 0.000000e+000 -1.000000e+000
      outer loop
         vertex 1.249839e-002 -1.844203e-016 -3.355942e-002
         vertex -1.250161e-002 -6.000000e-002 -3.355942e-002
         vertex -1.250161e-002 1.844428e-016 -3.355942e-002
      endloop
   endfacet
   facet normal -1.447742e-014 -1.000000e+000 0.000000e+000
      outer loop
         vertex -1.250161e-002 -6.000000e-002 -8.559420e-003
         vertex -1.250161e-002 -6.000000e-002 -3.355942e-002
         vertex 1.249839e-002 -6.000000e-002 -8.559420e-003
      endloop
   endfacet
   facet normal -1.447742e-014 -1.000000e+000 0.000000e+000
      outer loop
         vertex 1.249839e-002 -6.000000e-002 -8.559420e-003
         vertex -1.250161e-002 -6.000000e-002 -3.355942e-002
         vertex 1.249839e-002 -6.000000e-002 -3.355942e-002
      endloop
   endfacet
endsolid