solid base
   facet normal -8.827345e-032 1.000000e+000 1.369912e-016
      outer loop
         vertex -3.157240e-001 6.000000e-001 8.880000e-001
         vertex -2.667140e-001 6.000000e-001 8.880000e-001
         vertex -2.667140e-001 6.000000e-001 8.338599e-001
      endloop
   endfacet
   facet normal -8.827345e-032 1.000000e+000 1.369912e-016
      outer loop
         vertex 2.667159e-001 6.000000e-001 8.880000e-001
         vertex 3.142760e-001 6.000000e-001 8.880000e-001
         vertex 2.667159e-001 6.000000e-001 8.338599e-001
      endloop
   endfacet
   facet normal -8.827345e-032 1.000000e+000 1.369912e-016
      outer loop
         vertex 2.667159e-001 6.000000e-001 8.338599e-001
         vertex 3.142760e-001 6.000000e-001 8.880000e-001
         vertex 3.142760e-001 6.000000e-001 6.999991e-002
      endloop
   endfacet
   facet normal -8.827345e-032 1.000000e+000 1.369912e-016
      outer loop
         vertex 2.667159e-001 6.000000e-001 8.338599e-001
         vertex 3.142760e-001 6.000000e-001 6.999991e-002
         vertex -2.667140e-001 6.000000e-001 8.338599e-001
      endloop
   endfacet
   facet normal -8.827345e-032 1.000000e+000 1.369912e-016
      outer loop
         vertex -2.667140e-001 6.000000e-001 8.338599e-001
         vertex 3.142760e-001 6.000000e-001 6.999991e-002
         vertex -3.157240e-001 6.000000e-001 6.999991e-002
      endloop
   endfacet
   facet normal -8.827345e-032 1.000000e+000 1.369912e-016
      outer loop
         vertex -2.667140e-001 6.000000e-001 8.338599e-001
         vertex -3.157240e-001 6.000000e-001 6.999991e-002
         vertex -3.157240e-001 6.000000e-001 8.880000e-001
      endloop
   endfacet
   facet normal 1.522818e-015 -3.162278e-001 9.486833e-001
      outer loop
         vertex 3.142760e-001 2.150000e-001 8.880000e-001
         vertex -3.157240e-001 2.150000e-001 8.880000e-001
         vertex -3.346836e-002 1.248905e-001 8.579634e-001
      endloop
   endfacet
   facet normal 1.522818e-015 -3.162278e-001 9.486833e-001
      outer loop
         vertex 2.525854e-001 -1.401317e-001 7.696227e-001
         vertex 3.609525e-002 -1.347244e-001 7.714251e-001
         vertex -3.610335e-002 -1.347244e-001 7.714251e-001
      endloop
   endfacet
   facet normal 1.522818e-015 -3.162278e-001 9.486833e-001
      outer loop
         vertex 2.525854e-001 -1.401317e-001 7.696227e-001
         vertex -3.610335e-002 -1.347244e-001 7.714251e-001
         vertex -2.540335e-001 -1.401317e-001 7.696227e-001
      endloop
   endfacet
   facet normal 1.522818e-015 -3.162278e-001 9.486833e-001
      outer loop
         vertex -2.540335e-001 -1.401317e-001 7.696227e-001
         vertex -3.610335e-002 -1.347244e-001 7.714251e-001
         vertex -9.759960e-002 -9.759555e-002 7.838014e-001
      endloop
   endfacet
   facet normal 1.522818e-015 -3.162278e-001 9.486833e-001
      outer loop
         vertex -2.540335e-001 -1.401317e-001 7.696227e-001
         vertex -9.759960e-002 -9.759555e-002 7.838014e-001
         vertex -3.157240e-001 -5.000005e-003 8.146666e-001
      endloop
   endfacet
   facet normal 1.522818e-015 -3.162278e-001 9.486833e-001
      outer loop
         vertex 3.142760e-001 -5.000005e-003 8.146666e-001
         vertex 1.309463e-001 -3.508803e-002 8.046373e-001
         vertex 2.525854e-001 -1.401317e-001 7.696227e-001
      endloop
   endfacet
   facet normal 1.522818e-015 -3.162278e-001 9.486833e-001
      outer loop
         vertex 2.525854e-001 -1.401317e-001 7.696227e-001
         vertex 1.309463e-001 -3.508803e-002 8.046373e-001
         vertex 9.759151e-002 -9.759555e-002 7.838014e-001
      endloop
   endfacet
   facet normal 1.522818e-015 -3.162278e-001 9.486833e-001
      outer loop
         vertex 2.525854e-001 -1.401317e-001 7.696227e-001
         vertex 9.759151e-002 -9.759555e-002 7.838014e-001
         vertex 3.609525e-002 -1.347244e-001 7.714251e-001
      endloop
   endfacet
   facet normal 1.522818e-015 -3.162278e-001 9.486833e-001
      outer loop
         vertex -3.346836e-002 1.248905e-001 8.579634e-001
         vertex 3.346026e-002 1.248905e-001 8.579634e-001
         vertex 3.142760e-001 2.150000e-001 8.880000e-001
      endloop
   endfacet
   facet normal 1.522818e-015 -3.162278e-001 9.486833e-001
      outer loop
         vertex 3.142760e-001 2.150000e-001 8.880000e-001
         vertex 3.346026e-002 1.248905e-001 8.579634e-001
         vertex 9.232505e-002 9.232910e-002 8.471096e-001
      endloop
   endfacet
   facet normal 1.522818e-015 -3.162278e-001 9.486833e-001
      outer loop
         vertex 3.142760e-001 2.150000e-001 8.880000e-001
         vertex 9.232505e-002 9.232910e-002 8.471096e-001
         vertex 3.142760e-001 -5.000005e-003 8.146666e-001
      endloop
   endfacet
   facet normal 1.522818e-015 -3.162278e-001 9.486833e-001
      outer loop
         vertex 3.142760e-001 -5.000005e-003 8.146666e-001
         vertex 9.232505e-002 9.232910e-002 8.471096e-001
         vertex 1.283148e-001 3.438291e-002 8.277943e-001
      endloop
   endfacet
   facet normal 1.522818e-015 -3.162278e-001 9.486833e-001
      outer loop
         vertex 3.142760e-001 -5.000005e-003 8.146666e-001
         vertex 1.283148e-001 3.438291e-002 8.277943e-001
         vertex 1.309463e-001 -3.508803e-002 8.046373e-001
      endloop
   endfacet
   facet normal 1.522818e-015 -3.162278e-001 9.486833e-001
      outer loop
         vertex -9.759960e-002 -9.759555e-002 7.838014e-001
         vertex -1.309544e-001 -3.508803e-002 8.046373e-001
         vertex -3.157240e-001 -5.000005e-003 8.146666e-001
      endloop
   endfacet
   facet normal 1.522818e-015 -3.162278e-001 9.486833e-001
      outer loop
         vertex -3.157240e-001 -5.000005e-003 8.146666e-001
         vertex -1.309544e-001 -3.508803e-002 8.046373e-001
         vertex -1.283229e-001 3.438291e-002 8.277943e-001
      endloop
   endfacet
   facet normal 1.522818e-015 -3.162278e-001 9.486833e-001
      outer loop
         vertex -3.157240e-001 -5.000005e-003 8.146666e-001
         vertex -1.283229e-001 3.438291e-002 8.277943e-001
         vertex -3.157240e-001 2.150000e-001 8.880000e-001
      endloop
   endfacet
   facet normal 1.522818e-015 -3.162278e-001 9.486833e-001
      outer loop
         vertex -3.157240e-001 2.150000e-001 8.880000e-001
         vertex -1.283229e-001 3.438291e-002 8.277943e-001
         vertex -9.233315e-002 9.232910e-002 8.471096e-001
      endloop
   endfacet
   facet normal 1.522818e-015 -3.162278e-001 9.486833e-001
      outer loop
         vertex -3.157240e-001 2.150000e-001 8.880000e-001
         vertex -9.233315e-002 9.232910e-002 8.471096e-001
         vertex -3.346836e-002 1.248905e-001 8.579634e-001
      endloop
   endfacet
   facet normal 8.827345e-032 -1.000000e+000 -1.369912e-016
      outer loop
         vertex 8.927596e-002 -2.350000e-001 6.579999e-001
         vertex -9.072405e-002 -2.350000e-001 6.579999e-001
         vertex 8.927596e-002 -2.350000e-001 6.999991e-002
      endloop
   endfacet
   facet normal 8.827345e-032 -1.000000e+000 -1.369912e-016
      outer loop
         vertex 8.927596e-002 -2.350000e-001 6.999991e-002
         vertex -9.072405e-002 -2.350000e-001 6.579999e-001
         vertex -9.072405e-002 -2.350000e-001 6.999991e-002
      endloop
   endfacet
   facet normal 1.000000e+000 7.790603e-031 -1.605191e-015
      outer loop
         vertex 3.142760e-001 -5.000005e-003 8.146666e-001
         vertex 3.142760e-001 -5.000005e-003 6.999991e-002
         vertex 3.142760e-001 2.150000e-001 8.880000e-001
      endloop
   endfacet
   facet normal 1.000000e+000 7.790603e-031 -1.605191e-015
      outer loop
         vertex 3.142760e-001 2.150000e-001 8.880000e-001
         vertex 3.142760e-001 -5.000005e-003 6.999991e-002
         vertex 3.142760e-001 6.000000e-001 6.999991e-002
      endloop
   endfacet
   facet normal 1.000000e+000 7.790603e-031 -1.605191e-015
      outer loop
         vertex 3.142760e-001 2.150000e-001 8.880000e-001
         vertex 3.142760e-001 6.000000e-001 6.999991e-002
         vertex 3.142760e-001 6.000000e-001 8.880000e-001
      endloop
   endfacet
   facet normal -1.000000e+000 -7.790603e-031 1.605191e-015
      outer loop
         vertex -3.157240e-001 6.000000e-001 8.880000e-001
         vertex -3.157240e-001 6.000000e-001 6.999991e-002
         vertex -3.157240e-001 2.150000e-001 8.880000e-001
      endloop
   endfacet
   facet normal -1.000000e+000 -7.790603e-031 1.605191e-015
      outer loop
         vertex -3.157240e-001 2.150000e-001 8.880000e-001
         vertex -3.157240e-001 6.000000e-001 6.999991e-002
         vertex -3.157240e-001 -5.000005e-003 6.999991e-002
      endloop
   endfacet
   facet normal -1.000000e+000 -7.790603e-031 1.605191e-015
      outer loop
         vertex -3.157240e-001 2.150000e-001 8.880000e-001
         vertex -3.157240e-001 -5.000005e-003 6.999991e-002
         vertex -3.157240e-001 -5.000005e-003 8.146666e-001
      endloop
   endfacet
   facet normal 1.605191e-015 -1.369912e-016 1.000000e+000
      outer loop
         vertex -3.157240e-001 6.000000e-001 8.880000e-001
         vertex -3.157240e-001 2.150000e-001 8.880000e-001
         vertex -2.667140e-001 6.000000e-001 8.880000e-001
      endloop
   endfacet
   facet normal 1.605191e-015 -1.369912e-016 1.000000e+000
      outer loop
         vertex -2.667140e-001 6.000000e-001 8.880000e-001
         vertex -3.157240e-001 2.150000e-001 8.880000e-001
         vertex 3.142760e-001 2.150000e-001 8.880000e-001
      endloop
   endfacet
   facet normal 1.605191e-015 -1.369912e-016 1.000000e+000
      outer loop
         vertex -2.667140e-001 6.000000e-001 8.880000e-001
         vertex 3.142760e-001 2.150000e-001 8.880000e-001
         vertex 2.667159e-001 6.000000e-001 8.880000e-001
      endloop
   endfacet
   facet normal 1.605191e-015 -1.369912e-016 1.000000e+000
      outer loop
         vertex 2.667159e-001 6.000000e-001 8.880000e-001
         vertex 3.142760e-001 2.150000e-001 8.880000e-001
         vertex 3.142760e-001 6.000000e-001 8.880000e-001
      endloop
   endfacet
   facet normal -1.605191e-015 1.369912e-016 -1.000000e+000
      outer loop
         vertex -3.157240e-001 6.000000e-001 6.999991e-002
         vertex 3.142760e-001 6.000000e-001 6.999991e-002
         vertex 3.142760e-001 -5.000005e-003 6.999991e-002
      endloop
   endfacet
   facet normal -1.605191e-015 1.369912e-016 -1.000000e+000
      outer loop
         vertex -2.397945e-001 -1.713219e-001 6.999991e-002
         vertex -3.157240e-001 -5.000005e-003 6.999991e-002
         vertex -9.072405e-002 -2.350000e-001 6.999991e-002
      endloop
   endfacet
   facet normal -1.605191e-015 1.369912e-016 -1.000000e+000
      outer loop
         vertex -9.072405e-002 -2.350000e-001 6.999991e-002
         vertex -3.157240e-001 -5.000005e-003 6.999991e-002
         vertex -3.157240e-001 6.000000e-001 6.999991e-002
      endloop
   endfacet
   facet normal -1.605191e-015 1.369912e-016 -1.000000e+000
      outer loop
         vertex -9.072405e-002 -2.350000e-001 6.999991e-002
         vertex -3.157240e-001 6.000000e-001 6.999991e-002
         vertex 8.927596e-002 -2.350000e-001 6.999991e-002
      endloop
   endfacet
   facet normal -1.605191e-015 1.369912e-016 -1.000000e+000
      outer loop
         vertex 8.927596e-002 -2.350000e-001 6.999991e-002
         vertex -3.157240e-001 6.000000e-001 6.999991e-002
         vertex 3.142760e-001 -5.000005e-003 6.999991e-002
      endloop
   endfacet
   facet normal -1.605191e-015 1.369912e-016 -1.000000e+000
      outer loop
         vertex 8.927596e-002 -2.350000e-001 6.999991e-002
         vertex 3.142760e-001 -5.000005e-003 6.999991e-002
         vertex 2.383464e-001 -1.713219e-001 6.999991e-002
      endloop
   endfacet
   facet normal 9.096880e-001 -4.152924e-001 -1.517114e-015
      outer loop
         vertex 2.383464e-001 -1.713219e-001 7.329241e-001
         vertex 2.383464e-001 -1.713219e-001 6.999991e-002
         vertex 2.525854e-001 -1.401317e-001 7.696227e-001
      endloop
   endfacet
   facet normal 9.096880e-001 -4.152924e-001 -1.517114e-015
      outer loop
         vertex 2.525854e-001 -1.401317e-001 7.696227e-001
         vertex 2.383464e-001 -1.713219e-001 6.999991e-002
         vertex 3.142760e-001 -5.000005e-003 6.999991e-002
      endloop
   endfacet
   facet normal 9.096880e-001 -4.152924e-001 -1.517114e-015
      outer loop
         vertex 2.525854e-001 -1.401317e-001 7.696227e-001
         vertex 3.142760e-001 -5.000005e-003 6.999991e-002
         vertex 3.142760e-001 -5.000005e-003 8.146666e-001
      endloop
   endfacet
   facet normal -9.096880e-001 -4.152924e-001 1.403331e-015
      outer loop
         vertex -2.397945e-001 -1.713219e-001 6.999991e-002
         vertex -2.397945e-001 -1.713219e-001 7.329241e-001
         vertex -3.157240e-001 -5.000005e-003 6.999991e-002
      endloop
   endfacet
   facet normal -9.096880e-001 -4.152924e-001 1.403331e-015
      outer loop
         vertex -3.157240e-001 -5.000005e-003 6.999991e-002
         vertex -2.397945e-001 -1.713219e-001 7.329241e-001
         vertex -2.540335e-001 -1.401317e-001 7.696227e-001
      endloop
   endfacet
   facet normal -9.096880e-001 -4.152924e-001 1.403331e-015
      outer loop
         vertex -3.157240e-001 -5.000005e-003 6.999991e-002
         vertex -2.540335e-001 -1.401317e-001 7.696227e-001
         vertex -3.157240e-001 -5.000005e-003 8.146666e-001
      endloop
   endfacet
   facet normal 1.039529e-015 -7.619765e-001 6.476047e-001
      outer loop
         vertex 2.383464e-001 -1.713219e-001 7.329241e-001
         vertex 2.525854e-001 -1.401317e-001 7.696227e-001
         vertex 8.927596e-002 -2.350000e-001 6.579999e-001
      endloop
   endfacet
   facet normal 1.039529e-015 -7.619765e-001 6.476047e-001
      outer loop
         vertex 8.927596e-002 -2.350000e-001 6.579999e-001
         vertex 2.525854e-001 -1.401317e-001 7.696227e-001
         vertex -2.540335e-001 -1.401317e-001 7.696227e-001
      endloop
   endfacet
   facet normal 1.039529e-015 -7.619765e-001 6.476047e-001
      outer loop
         vertex 8.927596e-002 -2.350000e-001 6.579999e-001
         vertex -2.540335e-001 -1.401317e-001 7.696227e-001
         vertex -9.072405e-002 -2.350000e-001 6.579999e-001
      endloop
   endfacet
   facet normal 1.039529e-015 -7.619765e-001 6.476047e-001
      outer loop
         vertex -9.072405e-002 -2.350000e-001 6.579999e-001
         vertex -2.540335e-001 -1.401317e-001 7.696227e-001
         vertex -2.397945e-001 -1.713219e-001 7.329241e-001
      endloop
   endfacet
   facet normal -3.928288e-001 -9.196116e-001 5.045864e-016
      outer loop
         vertex -2.397945e-001 -1.713219e-001 6.999991e-002
         vertex -9.072405e-002 -2.350000e-001 6.999991e-002
         vertex -2.397945e-001 -1.713219e-001 7.329241e-001
      endloop
   endfacet
   facet normal -3.928288e-001 -9.196116e-001 5.045864e-016
      outer loop
         vertex -2.397945e-001 -1.713219e-001 7.329241e-001
         vertex -9.072405e-002 -2.350000e-001 6.999991e-002
         vertex -9.072405e-002 -2.350000e-001 6.579999e-001
      endloop
   endfacet
   facet normal 3.928288e-001 -9.196116e-001 -7.565439e-016
      outer loop
         vertex 2.383464e-001 -1.713219e-001 7.329241e-001
         vertex 8.927596e-002 -2.350000e-001 6.579999e-001
         vertex 2.383464e-001 -1.713219e-001 6.999991e-002
      endloop
   endfacet
   facet normal 3.928288e-001 -9.196116e-001 -7.565439e-016
      outer loop
         vertex 2.383464e-001 -1.713219e-001 6.999991e-002
         vertex 8.927596e-002 -2.350000e-001 6.579999e-001
         vertex 8.927596e-002 -2.350000e-001 6.999991e-002
      endloop
   endfacet
   facet normal 1.605191e-015 -1.369912e-016 1.000000e+000
      outer loop
         vertex -1.200041e-001 -3.215392e-002 9.009999e-001
         vertex -8.785015e-002 -8.784611e-002 9.009999e-001
         vertex -3.215795e-002 -1.200000e-001 9.009999e-001
      endloop
   endfacet
   facet normal 1.605191e-015 -1.369912e-016 1.000000e+000
      outer loop
         vertex -3.215795e-002 1.200000e-001 9.009999e-001
         vertex -8.785015e-002 8.784609e-002 9.009999e-001
         vertex 3.214986e-002 1.200000e-001 9.009999e-001
      endloop
   endfacet
   facet normal 1.605191e-015 -1.369912e-016 1.000000e+000
      outer loop
         vertex 3.214986e-002 1.200000e-001 9.009999e-001
         vertex -8.785015e-002 8.784609e-002 9.009999e-001
         vertex -1.200041e-001 3.215389e-002 9.009999e-001
      endloop
   endfacet
   facet normal 1.605191e-015 -1.369912e-016 1.000000e+000
      outer loop
         vertex 3.214986e-002 -1.200000e-001 9.009999e-001
         vertex 8.784205e-002 -8.784611e-002 9.009999e-001
         vertex -3.215795e-002 -1.200000e-001 9.009999e-001
      endloop
   endfacet
   facet normal 1.605191e-015 -1.369912e-016 1.000000e+000
      outer loop
         vertex -3.215795e-002 -1.200000e-001 9.009999e-001
         vertex 8.784205e-002 -8.784611e-002 9.009999e-001
         vertex 1.199960e-001 -3.215392e-002 9.009999e-001
      endloop
   endfacet
   facet normal 1.605191e-015 -1.369912e-016 1.000000e+000
      outer loop
         vertex -3.215795e-002 -1.200000e-001 9.009999e-001
         vertex 1.199960e-001 -3.215392e-002 9.009999e-001
         vertex 1.199960e-001 3.215389e-002 9.009999e-001
      endloop
   endfacet
   facet normal 1.605191e-015 -1.369912e-016 1.000000e+000
      outer loop
         vertex -1.200041e-001 3.215389e-002 9.009999e-001
         vertex -1.200041e-001 -3.215392e-002 9.009999e-001
         vertex 3.214986e-002 1.200000e-001 9.009999e-001
      endloop
   endfacet
   facet normal 1.605191e-015 -1.369912e-016 1.000000e+000
      outer loop
         vertex 3.214986e-002 1.200000e-001 9.009999e-001
         vertex -1.200041e-001 -3.215392e-002 9.009999e-001
         vertex -3.215795e-002 -1.200000e-001 9.009999e-001
      endloop
   endfacet
   facet normal 1.605191e-015 -1.369912e-016 1.000000e+000
      outer loop
         vertex 3.214986e-002 1.200000e-001 9.009999e-001
         vertex -3.215795e-002 -1.200000e-001 9.009999e-001
         vertex 8.784205e-002 8.784609e-002 9.009999e-001
      endloop
   endfacet
   facet normal 1.605191e-015 -1.369912e-016 1.000000e+000
      outer loop
         vertex 8.784205e-002 8.784609e-002 9.009999e-001
         vertex -3.215795e-002 -1.200000e-001 9.009999e-001
         vertex 1.199960e-001 3.215389e-002 9.009999e-001
      endloop
   endfacet
   facet normal -8.604874e-001 4.968027e-001 1.129097e-001
      outer loop
         vertex -1.283229e-001 3.438291e-002 8.277943e-001
         vertex -1.200041e-001 3.215389e-002 9.009999e-001
         vertex -9.233315e-002 9.232910e-002 8.471096e-001
      endloop
   endfacet
   facet normal -8.604874e-001 4.968027e-001 1.129097e-001
      outer loop
         vertex -9.233315e-002 9.232910e-002 8.471096e-001
         vertex -1.200041e-001 3.215389e-002 9.009999e-001
         vertex -8.785015e-002 8.784609e-002 9.009999e-001
      endloop
   endfacet
   facet normal -9.936053e-001 -1.546764e-017 1.129097e-001
      outer loop
         vertex -1.309544e-001 -3.508803e-002 8.046373e-001
         vertex -1.200041e-001 -3.215392e-002 9.009999e-001
         vertex -1.283229e-001 3.438291e-002 8.277943e-001
      endloop
   endfacet
   facet normal -9.936053e-001 -1.546764e-017 1.129097e-001
      outer loop
         vertex -1.283229e-001 3.438291e-002 8.277943e-001
         vertex -1.200041e-001 -3.215392e-002 9.009999e-001
         vertex -1.200041e-001 3.215389e-002 9.009999e-001
      endloop
   endfacet
   facet normal -4.968027e-001 8.604874e-001 1.129097e-001
      outer loop
         vertex -3.215795e-002 1.200000e-001 9.009999e-001
         vertex -3.346836e-002 1.248905e-001 8.579634e-001
         vertex -8.785015e-002 8.784609e-002 9.009999e-001
      endloop
   endfacet
   facet normal -4.968027e-001 8.604874e-001 1.129097e-001
      outer loop
         vertex -8.785015e-002 8.784609e-002 9.009999e-001
         vertex -3.346836e-002 1.248905e-001 8.579634e-001
         vertex -9.233315e-002 9.232910e-002 8.471096e-001
      endloop
   endfacet
   facet normal -8.604874e-001 -4.968027e-001 1.129097e-001
      outer loop
         vertex -9.759960e-002 -9.759555e-002 7.838014e-001
         vertex -8.785015e-002 -8.784611e-002 9.009999e-001
         vertex -1.309544e-001 -3.508803e-002 8.046373e-001
      endloop
   endfacet
   facet normal -8.604874e-001 -4.968027e-001 1.129097e-001
      outer loop
         vertex -1.309544e-001 -3.508803e-002 8.046373e-001
         vertex -8.785015e-002 -8.784611e-002 9.009999e-001
         vertex -1.200041e-001 -3.215392e-002 9.009999e-001
      endloop
   endfacet
   facet normal 1.812416e-016 9.936053e-001 1.129097e-001
      outer loop
         vertex 3.214986e-002 1.200000e-001 9.009999e-001
         vertex 3.346026e-002 1.248905e-001 8.579634e-001
         vertex -3.215795e-002 1.200000e-001 9.009999e-001
      endloop
   endfacet
   facet normal 1.812416e-016 9.936053e-001 1.129097e-001
      outer loop
         vertex -3.215795e-002 1.200000e-001 9.009999e-001
         vertex 3.346026e-002 1.248905e-001 8.579634e-001
         vertex -3.346836e-002 1.248905e-001 8.579634e-001
      endloop
   endfacet
   facet normal -4.968027e-001 -8.604874e-001 1.129097e-001
      outer loop
         vertex -3.610335e-002 -1.347244e-001 7.714251e-001
         vertex -3.215795e-002 -1.200000e-001 9.009999e-001
         vertex -9.759960e-002 -9.759555e-002 7.838014e-001
      endloop
   endfacet
   facet normal -4.968027e-001 -8.604874e-001 1.129097e-001
      outer loop
         vertex -9.759960e-002 -9.759555e-002 7.838014e-001
         vertex -3.215795e-002 -1.200000e-001 9.009999e-001
         vertex -8.785015e-002 -8.784611e-002 9.009999e-001
      endloop
   endfacet
   facet normal 4.968027e-001 8.604874e-001 1.129097e-001
      outer loop
         vertex 8.784205e-002 8.784609e-002 9.009999e-001
         vertex 9.232505e-002 9.232910e-002 8.471096e-001
         vertex 3.214986e-002 1.200000e-001 9.009999e-001
      endloop
   endfacet
   facet normal 4.968027e-001 8.604874e-001 1.129097e-001
      outer loop
         vertex 3.214986e-002 1.200000e-001 9.009999e-001
         vertex 9.232505e-002 9.232910e-002 8.471096e-001
         vertex 3.346026e-002 1.248905e-001 8.579634e-001
      endloop
   endfacet
   facet normal 1.812416e-016 -9.936053e-001 1.129097e-001
      outer loop
         vertex 3.609525e-002 -1.347244e-001 7.714251e-001
         vertex 3.214986e-002 -1.200000e-001 9.009999e-001
         vertex -3.610335e-002 -1.347244e-001 7.714251e-001
      endloop
   endfacet
   facet normal 1.812416e-016 -9.936053e-001 1.129097e-001
      outer loop
         vertex -3.610335e-002 -1.347244e-001 7.714251e-001
         vertex 3.214986e-002 -1.200000e-001 9.009999e-001
         vertex -3.215795e-002 -1.200000e-001 9.009999e-001
      endloop
   endfacet
   facet normal 8.604874e-001 4.968027e-001 1.129097e-001
      outer loop
         vertex 1.199960e-001 3.215389e-002 9.009999e-001
         vertex 1.283148e-001 3.438291e-002 8.277943e-001
         vertex 8.784205e-002 8.784609e-002 9.009999e-001
      endloop
   endfacet
   facet normal 8.604874e-001 4.968027e-001 1.129097e-001
      outer loop
         vertex 8.784205e-002 8.784609e-002 9.009999e-001
         vertex 1.283148e-001 3.438291e-002 8.277943e-001
         vertex 9.232505e-002 9.232910e-002 8.471096e-001
      endloop
   endfacet
   facet normal 4.968027e-001 -8.604874e-001 1.129097e-001
      outer loop
         vertex 9.759151e-002 -9.759555e-002 7.838014e-001
         vertex 8.784205e-002 -8.784611e-002 9.009999e-001
         vertex 3.609525e-002 -1.347244e-001 7.714251e-001
      endloop
   endfacet
   facet normal 4.968027e-001 -8.604874e-001 1.129097e-001
      outer loop
         vertex 3.609525e-002 -1.347244e-001 7.714251e-001
         vertex 8.784205e-002 -8.784611e-002 9.009999e-001
         vertex 3.214986e-002 -1.200000e-001 9.009999e-001
      endloop
   endfacet
   facet normal 9.936053e-001 -1.546764e-017 1.129097e-001
      outer loop
         vertex 1.199960e-001 -3.215392e-002 9.009999e-001
         vertex 1.309463e-001 -3.508803e-002 8.046373e-001
         vertex 1.199960e-001 3.215389e-002 9.009999e-001
      endloop
   endfacet
   facet normal 9.936053e-001 -1.546764e-017 1.129097e-001
      outer loop
         vertex 1.199960e-001 3.215389e-002 9.009999e-001
         vertex 1.309463e-001 -3.508803e-002 8.046373e-001
         vertex 1.283148e-001 3.438291e-002 8.277943e-001
      endloop
   endfacet
   facet normal 8.604874e-001 -4.968027e-001 1.129097e-001
      outer loop
         vertex 1.309463e-001 -3.508803e-002 8.046373e-001
         vertex 1.199960e-001 -3.215392e-002 9.009999e-001
         vertex 9.759151e-002 -9.759555e-002 7.838014e-001
      endloop
   endfacet
   facet normal 8.604874e-001 -4.968027e-001 1.129097e-001
      outer loop
         vertex 9.759151e-002 -9.759555e-002 7.838014e-001
         vertex 1.199960e-001 -3.215392e-002 9.009999e-001
         vertex 8.784205e-002 -8.784611e-002 9.009999e-001
      endloop
   endfacet
   facet normal 8.827345e-032 -1.000000e+000 -1.369912e-016
      outer loop
         vertex 2.667159e-001 6.000000e-001 8.938599e-001
         vertex -2.667140e-001 6.000000e-001 8.938599e-001
         vertex 2.667159e-001 6.000000e-001 8.880000e-001
      endloop
   endfacet
   facet normal 8.827345e-032 -1.000000e+000 -1.369912e-016
      outer loop
         vertex 2.667159e-001 6.000000e-001 8.880000e-001
         vertex -2.667140e-001 6.000000e-001 8.938599e-001
         vertex -2.667140e-001 6.000000e-001 8.880000e-001
      endloop
   endfacet
   facet normal -1.813320e-015 1.369912e-016 -1.000000e+000
      outer loop
         vertex 2.667159e-001 6.300000e-001 8.338599e-001
         vertex 2.667159e-001 6.000000e-001 8.338599e-001
         vertex -2.667140e-001 6.300000e-001 8.338599e-001
      endloop
   endfacet
   facet normal -1.813320e-015 1.369912e-016 -1.000000e+000
      outer loop
         vertex -2.667140e-001 6.300000e-001 8.338599e-001
         vertex 2.667159e-001 6.000000e-001 8.338599e-001
         vertex -2.667140e-001 6.000000e-001 8.338599e-001
      endloop
   endfacet
   facet normal -1.000000e+000 -7.790603e-031 1.605191e-015
      outer loop
         vertex -2.667140e-001 6.300000e-001 8.338599e-001
         vertex -2.667140e-001 6.000000e-001 8.338599e-001
         vertex -2.667140e-001 6.000000e-001 8.880000e-001
      endloop
   endfacet
   facet normal -1.000000e+000 -7.790603e-031 1.605191e-015
      outer loop
         vertex -2.667140e-001 6.700000e-001 8.471932e-001
         vertex -2.667140e-001 6.300000e-001 8.338599e-001
         vertex -2.667140e-001 6.700000e-001 8.938599e-001
      endloop
   endfacet
   facet normal -1.000000e+000 -7.790603e-031 1.605191e-015
      outer loop
         vertex -2.667140e-001 6.700000e-001 8.938599e-001
         vertex -2.667140e-001 6.300000e-001 8.338599e-001
         vertex -2.667140e-001 6.000000e-001 8.880000e-001
      endloop
   endfacet
   facet normal -1.000000e+000 -7.790603e-031 1.605191e-015
      outer loop
         vertex -2.667140e-001 6.700000e-001 8.938599e-001
         vertex -2.667140e-001 6.000000e-001 8.880000e-001
         vertex -2.667140e-001 6.000000e-001 8.938599e-001
      endloop
   endfacet
   facet normal 1.605191e-015 -1.369912e-016 1.000000e+000
      outer loop
         vertex -1.167140e-001 7.200000e-001 8.938599e-001
         vertex -2.667140e-001 6.700000e-001 8.938599e-001
         vertex -2.667140e-001 6.000000e-001 8.938599e-001
      endloop
   endfacet
   facet normal 1.605191e-015 -1.369912e-016 1.000000e+000
      outer loop
         vertex -1.167140e-001 7.200000e-001 8.938599e-001
         vertex -2.667140e-001 6.000000e-001 8.938599e-001
         vertex 1.167160e-001 7.200000e-001 8.938599e-001
      endloop
   endfacet
   facet normal 1.605191e-015 -1.369912e-016 1.000000e+000
      outer loop
         vertex 1.167160e-001 7.200000e-001 8.938599e-001
         vertex -2.667140e-001 6.000000e-001 8.938599e-001
         vertex 2.667159e-001 6.000000e-001 8.938599e-001
      endloop
   endfacet
   facet normal 1.605191e-015 -1.369912e-016 1.000000e+000
      outer loop
         vertex 1.167160e-001 7.200000e-001 8.938599e-001
         vertex 2.667159e-001 6.000000e-001 8.938599e-001
         vertex 2.667159e-001 6.700000e-001 8.938599e-001
      endloop
   endfacet
   facet normal 1.000000e+000 7.790603e-031 -1.605191e-015
      outer loop
         vertex 2.667159e-001 6.700000e-001 8.938599e-001
         vertex 2.667159e-001 6.000000e-001 8.938599e-001
         vertex 2.667159e-001 6.000000e-001 8.880000e-001
      endloop
   endfacet
   facet normal 1.000000e+000 7.790603e-031 -1.605191e-015
      outer loop
         vertex 2.667159e-001 6.700000e-001 8.471932e-001
         vertex 2.667159e-001 6.700000e-001 8.938599e-001
         vertex 2.667159e-001 6.300000e-001 8.338599e-001
      endloop
   endfacet
   facet normal 1.000000e+000 7.790603e-031 -1.605191e-015
      outer loop
         vertex 2.667159e-001 6.300000e-001 8.338599e-001
         vertex 2.667159e-001 6.700000e-001 8.938599e-001
         vertex 2.667159e-001 6.000000e-001 8.880000e-001
      endloop
   endfacet
   facet normal 1.000000e+000 7.790603e-031 -1.605191e-015
      outer loop
         vertex 2.667159e-001 6.300000e-001 8.338599e-001
         vertex 2.667159e-001 6.000000e-001 8.880000e-001
         vertex 2.667159e-001 6.000000e-001 8.338599e-001
      endloop
   endfacet
   facet normal -8.827345e-032 1.000000e+000 1.369912e-016
      outer loop
         vertex -1.167140e-001 7.200000e-001 8.938599e-001
         vertex 1.167160e-001 7.200000e-001 8.938599e-001
         vertex -1.167140e-001 7.200000e-001 8.638600e-001
      endloop
   endfacet
   facet normal -8.827345e-032 1.000000e+000 1.369912e-016
      outer loop
         vertex -1.167140e-001 7.200000e-001 8.638600e-001
         vertex 1.167160e-001 7.200000e-001 8.938599e-001
         vertex 1.167160e-001 7.200000e-001 8.638600e-001
      endloop
   endfacet
   facet normal -1.720266e-015 3.162278e-001 -9.486833e-001
      outer loop
         vertex 1.167160e-001 7.200000e-001 8.638600e-001
         vertex 2.667159e-001 6.700000e-001 8.471932e-001
         vertex -1.167140e-001 7.200000e-001 8.638600e-001
      endloop
   endfacet
   facet normal -1.720266e-015 3.162278e-001 -9.486833e-001
      outer loop
         vertex -1.167140e-001 7.200000e-001 8.638600e-001
         vertex 2.667159e-001 6.700000e-001 8.471932e-001
         vertex 2.667159e-001 6.300000e-001 8.338599e-001
      endloop
   endfacet
   facet normal -1.720266e-015 3.162278e-001 -9.486833e-001
      outer loop
         vertex -1.167140e-001 7.200000e-001 8.638600e-001
         vertex 2.667159e-001 6.300000e-001 8.338599e-001
         vertex -2.667140e-001 6.700000e-001 8.471932e-001
      endloop
   endfacet
   facet normal -1.720266e-015 3.162278e-001 -9.486833e-001
      outer loop
         vertex -2.667140e-001 6.700000e-001 8.471932e-001
         vertex 2.667159e-001 6.300000e-001 8.338599e-001
         vertex -2.667140e-001 6.300000e-001 8.338599e-001
      endloop
   endfacet
   facet normal 3.162278e-001 9.486833e-001 -3.776446e-016
      outer loop
         vertex 2.667159e-001 6.700000e-001 8.471932e-001
         vertex 1.167160e-001 7.200000e-001 8.638600e-001
         vertex 2.667159e-001 6.700000e-001 8.938599e-001
      endloop
   endfacet
   facet normal 3.162278e-001 9.486833e-001 -3.776446e-016
      outer loop
         vertex 2.667159e-001 6.700000e-001 8.938599e-001
         vertex 1.167160e-001 7.200000e-001 8.638600e-001
         vertex 1.167160e-001 7.200000e-001 8.938599e-001
      endloop
   endfacet
   facet normal -3.162278e-001 9.486833e-001 6.375672e-016
      outer loop
         vertex -2.667140e-001 6.700000e-001 8.938599e-001
         vertex -1.167140e-001 7.200000e-001 8.938599e-001
         vertex -2.667140e-001 6.700000e-001 8.471932e-001
      endloop
   endfacet
   facet normal -3.162278e-001 9.486833e-001 6.375672e-016
      outer loop
         vertex -2.667140e-001 6.700000e-001 8.471932e-001
         vertex -1.167140e-001 7.200000e-001 8.938599e-001
         vertex -1.167140e-001 7.200000e-001 8.638600e-001
      endloop
   endfacet
endsolid