solid flange_new
   facet normal -1.190119e-33 4.287854e-17 -1.000000e+00
      outer loop
         vertex 3.317329e-02 1.915261e-02 1.000000e-02
         vertex 3.950000e-02 4.300000e-02 1.000000e-02
         vertex 3.830522e-02 -1.460314e-09 1.000000e-02
      endloop
   endfacet
   facet normal -1.190119e-33 4.287854e-17 -1.000000e+00
      outer loop
         vertex 3.830522e-02 -1.460314e-09 1.000000e-02
         vertex 3.950000e-02 4.300000e-02 1.000000e-02
         vertex 3.950000e-02 -2.010000e-01 1.000000e-02
      endloop
   endfacet
   facet normal -1.190119e-33 4.287854e-17 -1.000000e+00
      outer loop
         vertex 3.830522e-02 -1.460314e-09 1.000000e-02
         vertex 3.950000e-02 -2.010000e-01 1.000000e-02
         vertex 3.317329e-02 -1.915261e-02 1.000000e-02
      endloop
   endfacet
   facet normal -1.190119e-33 4.287854e-17 -1.000000e+00
      outer loop
         vertex -1.915261e-02 3.317329e-02 1.000000e-02
         vertex -3.950000e-02 4.300000e-02 1.000000e-02
         vertex 1.460314e-09 3.830522e-02 1.000000e-02
      endloop
   endfacet
   facet normal -1.190119e-33 4.287854e-17 -1.000000e+00
      outer loop
         vertex 1.460314e-09 3.830522e-02 1.000000e-02
         vertex -3.950000e-02 4.300000e-02 1.000000e-02
         vertex 3.950000e-02 4.300000e-02 1.000000e-02
      endloop
   endfacet
   facet normal -1.190119e-33 4.287854e-17 -1.000000e+00
      outer loop
         vertex 1.460314e-09 3.830522e-02 1.000000e-02
         vertex 3.950000e-02 4.300000e-02 1.000000e-02
         vertex 1.915261e-02 3.317329e-02 1.000000e-02
      endloop
   endfacet
   facet normal -1.190119e-33 4.287854e-17 -1.000000e+00
      outer loop
         vertex 1.915261e-02 3.317329e-02 1.000000e-02
         vertex 3.950000e-02 4.300000e-02 1.000000e-02
         vertex 3.317329e-02 1.915261e-02 1.000000e-02
      endloop
   endfacet
   facet normal -1.190119e-33 4.287854e-17 -1.000000e+00
      outer loop
         vertex -3.317329e-02 -1.915261e-02 1.000000e-02
         vertex -3.950000e-02 -2.010000e-01 1.000000e-02
         vertex -3.830522e-02 -1.460314e-09 1.000000e-02
      endloop
   endfacet
   facet normal -1.190119e-33 4.287854e-17 -1.000000e+00
      outer loop
         vertex -3.830522e-02 -1.460314e-09 1.000000e-02
         vertex -3.950000e-02 -2.010000e-01 1.000000e-02
         vertex -3.950000e-02 4.300000e-02 1.000000e-02
      endloop
   endfacet
   facet normal -1.190119e-33 4.287854e-17 -1.000000e+00
      outer loop
         vertex -3.830522e-02 -1.460314e-09 1.000000e-02
         vertex -3.950000e-02 4.300000e-02 1.000000e-02
         vertex -3.317329e-02 1.915261e-02 1.000000e-02
      endloop
   endfacet
   facet normal -1.190119e-33 4.287854e-17 -1.000000e+00
      outer loop
         vertex -3.317329e-02 1.915261e-02 1.000000e-02
         vertex -3.950000e-02 4.300000e-02 1.000000e-02
         vertex -1.915261e-02 3.317329e-02 1.000000e-02
      endloop
   endfacet
   facet normal -1.190119e-33 4.287854e-17 -1.000000e+00
      outer loop
         vertex -3.317329e-02 -1.915261e-02 1.000000e-02
         vertex -1.915261e-02 -3.317329e-02 1.000000e-02
         vertex -3.950000e-02 -2.010000e-01 1.000000e-02
      endloop
   endfacet
   facet normal -1.190119e-33 4.287854e-17 -1.000000e+00
      outer loop
         vertex -3.950000e-02 -2.010000e-01 1.000000e-02
         vertex -1.915261e-02 -3.317329e-02 1.000000e-02
         vertex 1.460314e-09 -3.830522e-02 1.000000e-02
      endloop
   endfacet
   facet normal -1.190119e-33 4.287854e-17 -1.000000e+00
      outer loop
         vertex -3.950000e-02 -2.010000e-01 1.000000e-02
         vertex 1.460314e-09 -3.830522e-02 1.000000e-02
         vertex 3.950000e-02 -2.010000e-01 1.000000e-02
      endloop
   endfacet
   facet normal -1.190119e-33 4.287854e-17 -1.000000e+00
      outer loop
         vertex 3.950000e-02 -2.010000e-01 1.000000e-02
         vertex 1.460314e-09 -3.830522e-02 1.000000e-02
         vertex 1.915261e-02 -3.317329e-02 1.000000e-02
      endloop
   endfacet
   facet normal -1.190119e-33 4.287854e-17 -1.000000e+00
      outer loop
         vertex 3.950000e-02 -2.010000e-01 1.000000e-02
         vertex 1.915261e-02 -3.317329e-02 1.000000e-02
         vertex 3.317329e-02 -1.915261e-02 1.000000e-02
      endloop
   endfacet
   facet normal 1.190119e-33 -4.287854e-17 1.000000e+00
      outer loop
         vertex 1.800000e-02 -1.150000e-01 3.500000e-02
         vertex 4.300000e-02 -1.150000e-01 3.500000e-02
         vertex 4.300000e-02 4.300000e-02 3.500000e-02
      endloop
   endfacet
   facet normal 1.190119e-33 -4.287854e-17 1.000000e+00
      outer loop
         vertex -4.300000e-02 4.300000e-02 3.500000e-02
         vertex -4.300000e-02 -1.150000e-01 3.500000e-02
         vertex -1.800000e-02 -1.150000e-01 3.500000e-02
      endloop
   endfacet
   facet normal 1.190119e-33 -4.287854e-17 1.000000e+00
      outer loop
         vertex -1.800000e-02 -2.010000e-01 3.500000e-02
         vertex 1.800000e-02 -2.010000e-01 3.500000e-02
         vertex -1.800000e-02 -1.150000e-01 3.500000e-02
      endloop
   endfacet
   facet normal 1.190119e-33 -4.287854e-17 1.000000e+00
      outer loop
         vertex -1.800000e-02 -1.150000e-01 3.500000e-02
         vertex 1.800000e-02 -2.010000e-01 3.500000e-02
         vertex 1.800000e-02 -1.150000e-01 3.500000e-02
      endloop
   endfacet
   facet normal 1.190119e-33 -4.287854e-17 1.000000e+00
      outer loop
         vertex -1.800000e-02 -1.150000e-01 3.500000e-02
         vertex 1.800000e-02 -1.150000e-01 3.500000e-02
         vertex -4.300000e-02 4.300000e-02 3.500000e-02
      endloop
   endfacet
   facet normal 1.190119e-33 -4.287854e-17 1.000000e+00
      outer loop
         vertex -4.300000e-02 4.300000e-02 3.500000e-02
         vertex 1.800000e-02 -1.150000e-01 3.500000e-02
         vertex 4.300000e-02 4.300000e-02 3.500000e-02
      endloop
   endfacet
   facet normal -1.000000e+00 -2.775558e-17 5.551115e-16
      outer loop
         vertex -4.300000e-02 4.300000e-02 3.500000e-02
         vertex -4.300000e-02 4.300000e-02 1.350000e-02
         vertex -4.300000e-02 -1.150000e-01 3.500000e-02
      endloop
   endfacet
   facet normal -1.000000e+00 -2.775558e-17 5.551115e-16
      outer loop
         vertex -4.300000e-02 -1.150000e-01 3.500000e-02
         vertex -4.300000e-02 4.300000e-02 1.350000e-02
         vertex -4.300000e-02 -2.010000e-01 1.350000e-02
      endloop
   endfacet
   facet normal -1.000000e+00 -2.775556e-17 5.551115e-16
      outer loop
         vertex -4.300000e-02 -1.804144e-01 4.705905e-02
         vertex -4.300000e-02 -2.010000e-01 1.350000e-02
         vertex -4.300000e-02 -1.838819e-01 6.000000e-02
      endloop
   endfacet
   facet normal -1.000000e+00 -2.775564e-17 5.551115e-16
      outer loop
         vertex -4.300000e-02 -1.838819e-01 6.000000e-02
         vertex -4.300000e-02 -2.010000e-01 1.350000e-02
         vertex -4.300000e-02 -2.010000e-01 1.010000e-01
      endloop
   endfacet
   facet normal -1.000000e+00 -2.775567e-17 5.551115e-16
      outer loop
         vertex -4.300000e-02 -1.838819e-01 6.000000e-02
         vertex -4.300000e-02 -2.010000e-01 1.010000e-01
         vertex -4.300000e-02 -1.804144e-01 7.294095e-02
      endloop
   endfacet
   facet normal -1.000000e+00 -2.775549e-17 5.551115e-16
      outer loop
         vertex -4.300000e-02 -1.355856e-01 7.294095e-02
         vertex -4.300000e-02 -1.150000e-01 1.010000e-01
         vertex -4.300000e-02 -1.321181e-01 6.000000e-02
      endloop
   endfacet
   facet normal -1.000000e+00 -2.775553e-17 5.551115e-16
      outer loop
         vertex -4.300000e-02 -1.321181e-01 6.000000e-02
         vertex -4.300000e-02 -1.150000e-01 1.010000e-01
         vertex -4.300000e-02 -1.150000e-01 3.500000e-02
      endloop
   endfacet
   facet normal -1.000000e+00 -2.775558e-17 5.551115e-16
      outer loop
         vertex -4.300000e-02 -1.321181e-01 6.000000e-02
         vertex -4.300000e-02 -1.150000e-01 3.500000e-02
         vertex -4.300000e-02 -1.355856e-01 4.705905e-02
      endloop
   endfacet
   facet normal -1.000000e+00 -2.775548e-17 5.551115e-16
      outer loop
         vertex -4.300000e-02 -1.355856e-01 7.294095e-02
         vertex -4.300000e-02 -1.450590e-01 8.241439e-02
         vertex -4.300000e-02 -1.150000e-01 1.010000e-01
      endloop
   endfacet
   facet normal -1.000000e+00 -2.775564e-17 5.551118e-16
      outer loop
         vertex -4.300000e-02 -1.150000e-01 1.010000e-01
         vertex -4.300000e-02 -1.450590e-01 8.241439e-02
         vertex -4.300000e-02 -1.580000e-01 8.588190e-02
      endloop
   endfacet
   facet normal -1.000000e+00 -2.775558e-17 5.551116e-16
      outer loop
         vertex -4.300000e-02 -1.150000e-01 1.010000e-01
         vertex -4.300000e-02 -1.580000e-01 8.588190e-02
         vertex -4.300000e-02 -2.010000e-01 1.010000e-01
      endloop
   endfacet
   facet normal -1.000000e+00 -2.775552e-17 5.551118e-16
      outer loop
         vertex -4.300000e-02 -2.010000e-01 1.010000e-01
         vertex -4.300000e-02 -1.580000e-01 8.588190e-02
         vertex -4.300000e-02 -1.709409e-01 8.241439e-02
      endloop
   endfacet
   facet normal -1.000000e+00 -2.775567e-17 5.551115e-16
      outer loop
         vertex -4.300000e-02 -2.010000e-01 1.010000e-01
         vertex -4.300000e-02 -1.709409e-01 8.241439e-02
         vertex -4.300000e-02 -1.804144e-01 7.294095e-02
      endloop
   endfacet
   facet normal -1.000000e+00 -2.775558e-17 5.551115e-16
      outer loop
         vertex -4.300000e-02 -1.804144e-01 4.705905e-02
         vertex -4.300000e-02 -1.709409e-01 3.758561e-02
         vertex -4.300000e-02 -2.010000e-01 1.350000e-02
      endloop
   endfacet
   facet normal -1.000000e+00 -2.775558e-17 5.551115e-16
      outer loop
         vertex -4.300000e-02 -2.010000e-01 1.350000e-02
         vertex -4.300000e-02 -1.709409e-01 3.758561e-02
         vertex -4.300000e-02 -1.580000e-01 3.411810e-02
      endloop
   endfacet
   facet normal -1.000000e+00 -2.775557e-17 5.551115e-16
      outer loop
         vertex -4.300000e-02 -2.010000e-01 1.350000e-02
         vertex -4.300000e-02 -1.580000e-01 3.411810e-02
         vertex -4.300000e-02 -1.150000e-01 3.500000e-02
      endloop
   endfacet
   facet normal -1.000000e+00 -2.775558e-17 5.551115e-16
      outer loop
         vertex -4.300000e-02 -1.150000e-01 3.500000e-02
         vertex -4.300000e-02 -1.580000e-01 3.411810e-02
         vertex -4.300000e-02 -1.450590e-01 3.758561e-02
      endloop
   endfacet
   facet normal -1.000000e+00 -2.775558e-17 5.551115e-16
      outer loop
         vertex -4.300000e-02 -1.150000e-01 3.500000e-02
         vertex -4.300000e-02 -1.450590e-01 3.758561e-02
         vertex -4.300000e-02 -1.355856e-01 4.705905e-02
      endloop
   endfacet
   facet normal 1.000000e+00 2.775558e-17 0.000000e+00
      outer loop
         vertex 4.300000e-02 4.300000e-02 1.350000e-02
         vertex 4.300000e-02 4.300000e-02 3.500000e-02
         vertex 4.300000e-02 -1.150000e-01 3.500000e-02
      endloop
   endfacet
   facet normal 1.000000e+00 2.775558e-17 0.000000e+00
      outer loop
         vertex 4.300000e-02 -1.150000e-01 1.010000e-01
         vertex 4.300000e-02 -2.010000e-01 1.010000e-01
         vertex 4.300000e-02 -1.150000e-01 3.500000e-02
      endloop
   endfacet
   facet normal 1.000000e+00 2.775558e-17 0.000000e+00
      outer loop
         vertex 4.300000e-02 -1.150000e-01 3.500000e-02
         vertex 4.300000e-02 -2.010000e-01 1.010000e-01
         vertex 4.300000e-02 -2.010000e-01 1.350000e-02
      endloop
   endfacet
   facet normal 1.000000e+00 2.775558e-17 0.000000e+00
      outer loop
         vertex 4.300000e-02 -1.150000e-01 3.500000e-02
         vertex 4.300000e-02 -2.010000e-01 1.350000e-02
         vertex 4.300000e-02 4.300000e-02 1.350000e-02
      endloop
   endfacet
   facet normal 2.775558e-17 -1.000000e+00 -4.287854e-17
      outer loop
         vertex 2.800000e-02 -2.010000e-01 1.160000e-01
         vertex 9.999999e-03 -2.010000e-01 1.160000e-01
         vertex 9.999999e-03 -2.010000e-01 6.800000e-02
      endloop
   endfacet
   facet normal 2.775558e-17 -1.000000e+00 -4.287854e-17
      outer loop
         vertex 2.800000e-02 -2.010000e-01 1.160000e-01
         vertex 9.999999e-03 -2.010000e-01 6.800000e-02
         vertex 4.300000e-02 -2.010000e-01 1.010000e-01
      endloop
   endfacet
   facet normal 2.775558e-17 -1.000000e+00 -4.287854e-17
      outer loop
         vertex 4.300000e-02 -2.010000e-01 1.010000e-01
         vertex 9.999999e-03 -2.010000e-01 6.800000e-02
         vertex 1.800000e-02 -2.010000e-01 6.800000e-02
      endloop
   endfacet
   facet normal 2.775558e-17 -1.000000e+00 -4.287854e-17
      outer loop
         vertex 4.300000e-02 -2.010000e-01 1.010000e-01
         vertex 1.800000e-02 -2.010000e-01 6.800000e-02
         vertex 4.300000e-02 -2.010000e-01 1.350000e-02
      endloop
   endfacet
   facet normal 2.775558e-17 -1.000000e+00 -4.287854e-17
      outer loop
         vertex 4.300000e-02 -2.010000e-01 1.350000e-02
         vertex 1.800000e-02 -2.010000e-01 6.800000e-02
         vertex 3.950000e-02 -2.010000e-01 1.000000e-02
      endloop
   endfacet
   facet normal 2.775558e-17 -1.000000e+00 -4.287854e-17
      outer loop
         vertex 3.950000e-02 -2.010000e-01 1.000000e-02
         vertex 1.800000e-02 -2.010000e-01 6.800000e-02
         vertex 1.800000e-02 -2.010000e-01 3.500000e-02
      endloop
   endfacet
   facet normal 2.775558e-17 -1.000000e+00 -4.287854e-17
      outer loop
         vertex 3.950000e-02 -2.010000e-01 1.000000e-02
         vertex 1.800000e-02 -2.010000e-01 3.500000e-02
         vertex -3.950000e-02 -2.010000e-01 1.000000e-02
      endloop
   endfacet
   facet normal 2.775558e-17 -1.000000e+00 -4.287854e-17
      outer loop
         vertex -3.950000e-02 -2.010000e-01 1.000000e-02
         vertex 1.800000e-02 -2.010000e-01 3.500000e-02
         vertex -1.800000e-02 -2.010000e-01 3.500000e-02
      endloop
   endfacet
   facet normal 2.775558e-17 -1.000000e+00 -4.287854e-17
      outer loop
         vertex -3.950000e-02 -2.010000e-01 1.000000e-02
         vertex -1.800000e-02 -2.010000e-01 3.500000e-02
         vertex -4.300000e-02 -2.010000e-01 1.350000e-02
      endloop
   endfacet
   facet normal 2.775558e-17 -1.000000e+00 -4.287854e-17
      outer loop
         vertex -4.300000e-02 -2.010000e-01 1.350000e-02
         vertex -1.800000e-02 -2.010000e-01 3.500000e-02
         vertex -1.800000e-02 -2.010000e-01 6.800000e-02
      endloop
   endfacet
   facet normal 2.775558e-17 -1.000000e+00 -4.287854e-17
      outer loop
         vertex -4.300000e-02 -2.010000e-01 1.350000e-02
         vertex -1.800000e-02 -2.010000e-01 6.800000e-02
         vertex -4.300000e-02 -2.010000e-01 1.010000e-01
      endloop
   endfacet
   facet normal 2.775558e-17 -1.000000e+00 -4.287854e-17
      outer loop
         vertex -4.300000e-02 -2.010000e-01 1.010000e-01
         vertex -1.800000e-02 -2.010000e-01 6.800000e-02
         vertex -2.800000e-02 -2.010000e-01 1.160000e-01
      endloop
   endfacet
   facet normal 2.775558e-17 -1.000000e+00 -4.287854e-17
      outer loop
         vertex -2.800000e-02 -2.010000e-01 1.160000e-01
         vertex -1.800000e-02 -2.010000e-01 6.800000e-02
         vertex -1.000000e-02 -2.010000e-01 6.800000e-02
      endloop
   endfacet
   facet normal 2.775558e-17 -1.000000e+00 -4.287854e-17
      outer loop
         vertex -2.800000e-02 -2.010000e-01 1.160000e-01
         vertex -1.000000e-02 -2.010000e-01 6.800000e-02
         vertex -1.000000e-02 -2.010000e-01 1.160000e-01
      endloop
   endfacet
   facet normal -2.775558e-17 1.000000e+00 4.287854e-17
      outer loop
         vertex 4.300000e-02 4.300000e-02 3.500000e-02
         vertex 4.300000e-02 4.300000e-02 1.350000e-02
         vertex 3.950000e-02 4.300000e-02 1.000000e-02
      endloop
   endfacet
   facet normal -2.775558e-17 1.000000e+00 4.287854e-17
      outer loop
         vertex 3.950000e-02 4.300000e-02 1.000000e-02
         vertex -3.950000e-02 4.300000e-02 1.000000e-02
         vertex 4.300000e-02 4.300000e-02 3.500000e-02
      endloop
   endfacet
   facet normal -2.775558e-17 1.000000e+00 4.287854e-17
      outer loop
         vertex 4.300000e-02 4.300000e-02 3.500000e-02
         vertex -3.950000e-02 4.300000e-02 1.000000e-02
         vertex -4.300000e-02 4.300000e-02 1.350000e-02
      endloop
   endfacet
   facet normal -2.775558e-17 1.000000e+00 4.287854e-17
      outer loop
         vertex 4.300000e-02 4.300000e-02 3.500000e-02
         vertex -4.300000e-02 4.300000e-02 1.350000e-02
         vertex -4.300000e-02 4.300000e-02 3.500000e-02
      endloop
   endfacet
   facet normal 1.190119e-33 -4.287854e-17 1.000000e+00
      outer loop
         vertex -2.800000e-02 -2.010000e-01 1.160000e-01
         vertex -1.000000e-02 -2.010000e-01 1.160000e-01
         vertex -2.800000e-02 -1.150000e-01 1.160000e-01
      endloop
   endfacet
   facet normal 1.190119e-33 -4.287854e-17 1.000000e+00
      outer loop
         vertex -2.800000e-02 -1.150000e-01 1.160000e-01
         vertex -1.000000e-02 -2.010000e-01 1.160000e-01
         vertex -1.000000e-02 -1.150000e-01 1.160000e-01
      endloop
   endfacet
   facet normal 1.000000e+00 2.775558e-17 0.000000e+00
      outer loop
         vertex -1.000000e-02 -1.150000e-01 6.800000e-02
         vertex -1.000000e-02 -1.150000e-01 1.160000e-01
         vertex -1.000000e-02 -2.010000e-01 6.800000e-02
      endloop
   endfacet
   facet normal 1.000000e+00 2.775558e-17 0.000000e+00
      outer loop
         vertex -1.000000e-02 -2.010000e-01 6.800000e-02
         vertex -1.000000e-02 -1.150000e-01 1.160000e-01
         vertex -1.000000e-02 -2.010000e-01 1.160000e-01
      endloop
   endfacet
   facet normal -1.190119e-33 4.287854e-17 -1.000000e+00
      outer loop
         vertex -1.800000e-02 -1.150000e-01 6.800000e-02
         vertex -1.000000e-02 -1.150000e-01 6.800000e-02
         vertex -1.800000e-02 -2.010000e-01 6.800000e-02
      endloop
   endfacet
   facet normal -1.190119e-33 4.287854e-17 -1.000000e+00
      outer loop
         vertex -1.800000e-02 -2.010000e-01 6.800000e-02
         vertex -1.000000e-02 -1.150000e-01 6.800000e-02
         vertex -1.000000e-02 -2.010000e-01 6.800000e-02
      endloop
   endfacet
   facet normal 1.000000e+00 2.775558e-17 0.000000e+00
      outer loop
         vertex -1.800000e-02 -1.150000e-01 3.500000e-02
         vertex -1.800000e-02 -1.150000e-01 6.800000e-02
         vertex -1.800000e-02 -2.010000e-01 3.500000e-02
      endloop
   endfacet
   facet normal 1.000000e+00 2.775558e-17 0.000000e+00
      outer loop
         vertex -1.800000e-02 -2.010000e-01 3.500000e-02
         vertex -1.800000e-02 -1.150000e-01 6.800000e-02
         vertex -1.800000e-02 -2.010000e-01 6.800000e-02
      endloop
   endfacet
   facet normal -2.775558e-17 1.000000e+00 4.287854e-17
      outer loop
         vertex -1.800000e-02 -1.150000e-01 3.500000e-02
         vertex -4.300000e-02 -1.150000e-01 3.500000e-02
         vertex -1.800000e-02 -1.150000e-01 6.800000e-02
      endloop
   endfacet
   facet normal -2.775558e-17 1.000000e+00 4.287854e-17
      outer loop
         vertex -1.800000e-02 -1.150000e-01 6.800000e-02
         vertex -4.300000e-02 -1.150000e-01 3.500000e-02
         vertex -4.300000e-02 -1.150000e-01 1.010000e-01
      endloop
   endfacet
   facet normal -2.775558e-17 1.000000e+00 4.287854e-17
      outer loop
         vertex -1.800000e-02 -1.150000e-01 6.800000e-02
         vertex -4.300000e-02 -1.150000e-01 1.010000e-01
         vertex -1.000000e-02 -1.150000e-01 6.800000e-02
      endloop
   endfacet
   facet normal -2.775558e-17 1.000000e+00 4.287854e-17
      outer loop
         vertex -1.000000e-02 -1.150000e-01 6.800000e-02
         vertex -4.300000e-02 -1.150000e-01 1.010000e-01
         vertex -2.800000e-02 -1.150000e-01 1.160000e-01
      endloop
   endfacet
   facet normal -2.775558e-17 1.000000e+00 4.287854e-17
      outer loop
         vertex -1.000000e-02 -1.150000e-01 6.800000e-02
         vertex -2.800000e-02 -1.150000e-01 1.160000e-01
         vertex -1.000000e-02 -1.150000e-01 1.160000e-01
      endloop
   endfacet
   facet normal -1.000000e+00 -2.775558e-17 0.000000e+00
      outer loop
         vertex 1.800000e-02 -1.150000e-01 6.800000e-02
         vertex 1.800000e-02 -1.150000e-01 3.500000e-02
         vertex 1.800000e-02 -2.010000e-01 6.800000e-02
      endloop
   endfacet
   facet normal -1.000000e+00 -2.775558e-17 0.000000e+00
      outer loop
         vertex 1.800000e-02 -2.010000e-01 6.800000e-02
         vertex 1.800000e-02 -1.150000e-01 3.500000e-02
         vertex 1.800000e-02 -2.010000e-01 3.500000e-02
      endloop
   endfacet
   facet normal -1.190119e-33 4.287854e-17 -1.000000e+00
      outer loop
         vertex 9.999999e-03 -1.150000e-01 6.800000e-02
         vertex 1.800000e-02 -1.150000e-01 6.800000e-02
         vertex 9.999999e-03 -2.010000e-01 6.800000e-02
      endloop
   endfacet
   facet normal -1.190119e-33 4.287854e-17 -1.000000e+00
      outer loop
         vertex 9.999999e-03 -2.010000e-01 6.800000e-02
         vertex 1.800000e-02 -1.150000e-01 6.800000e-02
         vertex 1.800000e-02 -2.010000e-01 6.800000e-02
      endloop
   endfacet
   facet normal -1.000000e+00 -2.775558e-17 0.000000e+00
      outer loop
         vertex 9.999999e-03 -1.150000e-01 1.160000e-01
         vertex 9.999999e-03 -1.150000e-01 6.800000e-02
         vertex 9.999999e-03 -2.010000e-01 1.160000e-01
      endloop
   endfacet
   facet normal -1.000000e+00 -2.775558e-17 0.000000e+00
      outer loop
         vertex 9.999999e-03 -2.010000e-01 1.160000e-01
         vertex 9.999999e-03 -1.150000e-01 6.800000e-02
         vertex 9.999999e-03 -2.010000e-01 6.800000e-02
      endloop
   endfacet
   facet normal 1.190119e-33 -4.287854e-17 1.000000e+00
      outer loop
         vertex 2.800000e-02 -1.150000e-01 1.160000e-01
         vertex 9.999999e-03 -1.150000e-01 1.160000e-01
         vertex 2.800000e-02 -2.010000e-01 1.160000e-01
      endloop
   endfacet
   facet normal 1.190119e-33 -4.287854e-17 1.000000e+00
      outer loop
         vertex 2.800000e-02 -2.010000e-01 1.160000e-01
         vertex 9.999999e-03 -1.150000e-01 1.160000e-01
         vertex 9.999999e-03 -2.010000e-01 1.160000e-01
      endloop
   endfacet
   facet normal -2.775558e-17 1.000000e+00 4.287854e-17
      outer loop
         vertex 4.300000e-02 -1.150000e-01 3.500000e-02
         vertex 1.800000e-02 -1.150000e-01 3.500000e-02
         vertex 4.300000e-02 -1.150000e-01 1.010000e-01
      endloop
   endfacet
   facet normal -2.775558e-17 1.000000e+00 4.287854e-17
      outer loop
         vertex 4.300000e-02 -1.150000e-01 1.010000e-01
         vertex 1.800000e-02 -1.150000e-01 3.500000e-02
         vertex 1.800000e-02 -1.150000e-01 6.800000e-02
      endloop
   endfacet
   facet normal -2.775558e-17 1.000000e+00 4.287854e-17
      outer loop
         vertex 4.300000e-02 -1.150000e-01 1.010000e-01
         vertex 1.800000e-02 -1.150000e-01 6.800000e-02
         vertex 2.800000e-02 -1.150000e-01 1.160000e-01
      endloop
   endfacet
   facet normal -2.775558e-17 1.000000e+00 4.287854e-17
      outer loop
         vertex 2.800000e-02 -1.150000e-01 1.160000e-01
         vertex 1.800000e-02 -1.150000e-01 6.800000e-02
         vertex 9.999999e-03 -1.150000e-01 6.800000e-02
      endloop
   endfacet
   facet normal -2.775558e-17 1.000000e+00 4.287854e-17
      outer loop
         vertex 2.800000e-02 -1.150000e-01 1.160000e-01
         vertex 9.999999e-03 -1.150000e-01 6.800000e-02
         vertex 9.999999e-03 -1.150000e-01 1.160000e-01
      endloop
   endfacet
   facet normal 2.680983e-17 -9.659259e-01 2.588189e-01
      outer loop
         vertex -8.100000e-02 -1.804144e-01 7.294095e-02
         vertex -8.100000e-02 -1.838819e-01 6.000000e-02
         vertex -4.300000e-02 -1.804144e-01 7.294095e-02
      endloop
   endfacet
   facet normal 2.680983e-17 -9.659259e-01 2.588189e-01
      outer loop
         vertex -4.300000e-02 -1.804144e-01 7.294095e-02
         vertex -8.100000e-02 -1.838819e-01 6.000000e-02
         vertex -4.300000e-02 -1.838819e-01 6.000000e-02
      endloop
   endfacet
   facet normal 1.962615e-17 -7.071065e-01 7.071071e-01
      outer loop
         vertex -8.100000e-02 -1.709409e-01 8.241439e-02
         vertex -8.100000e-02 -1.804144e-01 7.294095e-02
         vertex -4.300000e-02 -1.709409e-01 8.241439e-02
      endloop
   endfacet
   facet normal 1.962615e-17 -7.071065e-01 7.071071e-01
      outer loop
         vertex -4.300000e-02 -1.709409e-01 8.241439e-02
         vertex -8.100000e-02 -1.804144e-01 7.294095e-02
         vertex -4.300000e-02 -1.804144e-01 7.294095e-02
      endloop
   endfacet
   facet normal 7.183671e-18 -2.588190e-01 9.659258e-01
      outer loop
         vertex -8.100000e-02 -1.580000e-01 8.588190e-02
         vertex -8.100000e-02 -1.709409e-01 8.241439e-02
         vertex -4.300000e-02 -1.580000e-01 8.588190e-02
      endloop
   endfacet
   facet normal 7.183671e-18 -2.588190e-01 9.659258e-01
      outer loop
         vertex -4.300000e-02 -1.580000e-01 8.588190e-02
         vertex -8.100000e-02 -1.709409e-01 8.241439e-02
         vertex -4.300000e-02 -1.709409e-01 8.241439e-02
      endloop
   endfacet
   facet normal -7.183664e-18 2.588188e-01 9.659259e-01
      outer loop
         vertex -8.100000e-02 -1.450590e-01 8.241439e-02
         vertex -8.100000e-02 -1.580000e-01 8.588190e-02
         vertex -4.300000e-02 -1.450590e-01 8.241439e-02
      endloop
   endfacet
   facet normal -7.183664e-18 2.588188e-01 9.659259e-01
      outer loop
         vertex -4.300000e-02 -1.450590e-01 8.241439e-02
         vertex -8.100000e-02 -1.580000e-01 8.588190e-02
         vertex -4.300000e-02 -1.580000e-01 8.588190e-02
      endloop
   endfacet
   facet normal -1.962616e-17 7.071071e-01 7.071065e-01
      outer loop
         vertex -8.100000e-02 -1.355856e-01 7.294095e-02
         vertex -8.100000e-02 -1.450590e-01 8.241439e-02
         vertex -4.300000e-02 -1.355856e-01 7.294095e-02
      endloop
   endfacet
   facet normal -1.962616e-17 7.071071e-01 7.071065e-01
      outer loop
         vertex -4.300000e-02 -1.355856e-01 7.294095e-02
         vertex -8.100000e-02 -1.450590e-01 8.241439e-02
         vertex -4.300000e-02 -1.450590e-01 8.241439e-02
      endloop
   endfacet
   facet normal -2.680982e-17 9.659256e-01 2.588199e-01
      outer loop
         vertex -8.100000e-02 -1.321181e-01 6.000000e-02
         vertex -8.100000e-02 -1.355856e-01 7.294095e-02
         vertex -4.300000e-02 -1.321181e-01 6.000000e-02
      endloop
   endfacet
   facet normal -2.680982e-17 9.659256e-01 2.588199e-01
      outer loop
         vertex -4.300000e-02 -1.321181e-01 6.000000e-02
         vertex -8.100000e-02 -1.355856e-01 7.294095e-02
         vertex -4.300000e-02 -1.355856e-01 7.294095e-02
      endloop
   endfacet
   facet normal -2.680982e-17 9.659256e-01 -2.588199e-01
      outer loop
         vertex -8.100000e-02 -1.355856e-01 4.705905e-02
         vertex -8.100000e-02 -1.321181e-01 6.000000e-02
         vertex -4.300000e-02 -1.355856e-01 4.705905e-02
      endloop
   endfacet
   facet normal -2.680982e-17 9.659256e-01 -2.588199e-01
      outer loop
         vertex -4.300000e-02 -1.355856e-01 4.705905e-02
         vertex -8.100000e-02 -1.321181e-01 6.000000e-02
         vertex -4.300000e-02 -1.321181e-01 6.000000e-02
      endloop
   endfacet
   facet normal -1.962616e-17 7.071070e-01 -7.071065e-01
      outer loop
         vertex -8.100000e-02 -1.450590e-01 3.758561e-02
         vertex -8.100000e-02 -1.355856e-01 4.705905e-02
         vertex -4.300000e-02 -1.450590e-01 3.758561e-02
      endloop
   endfacet
   facet normal -1.962616e-17 7.071070e-01 -7.071065e-01
      outer loop
         vertex -4.300000e-02 -1.450590e-01 3.758561e-02
         vertex -8.100000e-02 -1.355856e-01 4.705905e-02
         vertex -4.300000e-02 -1.355856e-01 4.705905e-02
      endloop
   endfacet
   facet normal -7.183668e-18 2.588189e-01 -9.659259e-01
      outer loop
         vertex -8.100000e-02 -1.580000e-01 3.411810e-02
         vertex -8.100000e-02 -1.450590e-01 3.758561e-02
         vertex -4.300000e-02 -1.580000e-01 3.411810e-02
      endloop
   endfacet
   facet normal -7.183668e-18 2.588189e-01 -9.659259e-01
      outer loop
         vertex -4.300000e-02 -1.580000e-01 3.411810e-02
         vertex -8.100000e-02 -1.450590e-01 3.758561e-02
         vertex -4.300000e-02 -1.450590e-01 3.758561e-02
      endloop
   endfacet
   facet normal 7.183676e-18 -2.588192e-01 -9.659258e-01
      outer loop
         vertex -8.100000e-02 -1.709409e-01 3.758561e-02
         vertex -8.100000e-02 -1.580000e-01 3.411810e-02
         vertex -4.300000e-02 -1.709409e-01 3.758561e-02
      endloop
   endfacet
   facet normal 7.183676e-18 -2.588192e-01 -9.659258e-01
      outer loop
         vertex -4.300000e-02 -1.709409e-01 3.758561e-02
         vertex -8.100000e-02 -1.580000e-01 3.411810e-02
         vertex -4.300000e-02 -1.580000e-01 3.411810e-02
      endloop
   endfacet
   facet normal 1.962615e-17 -7.071065e-01 -7.071071e-01
      outer loop
         vertex -8.100000e-02 -1.804144e-01 4.705905e-02
         vertex -8.100000e-02 -1.709409e-01 3.758561e-02
         vertex -4.300000e-02 -1.804144e-01 4.705905e-02
      endloop
   endfacet
   facet normal 1.962615e-17 -7.071065e-01 -7.071071e-01
      outer loop
         vertex -4.300000e-02 -1.804144e-01 4.705905e-02
         vertex -8.100000e-02 -1.709409e-01 3.758561e-02
         vertex -4.300000e-02 -1.709409e-01 3.758561e-02
      endloop
   endfacet
   facet normal 2.680983e-17 -9.659259e-01 -2.588189e-01
      outer loop
         vertex -8.100000e-02 -1.838819e-01 6.000000e-02
         vertex -8.100000e-02 -1.804144e-01 4.705905e-02
         vertex -4.300000e-02 -1.838819e-01 6.000000e-02
      endloop
   endfacet
   facet normal 2.680983e-17 -9.659259e-01 -2.588189e-01
      outer loop
         vertex -4.300000e-02 -1.838819e-01 6.000000e-02
         vertex -8.100000e-02 -1.804144e-01 4.705905e-02
         vertex -4.300000e-02 -1.804144e-01 4.705905e-02
      endloop
   endfacet
   facet normal -1.000000e+00 -2.775558e-17 -0.000000e+00
      outer loop
         vertex -8.100000e-02 -1.355856e-01 4.705905e-02
         vertex -8.100000e-02 -1.450590e-01 3.758561e-02
         vertex -8.100000e-02 -1.709409e-01 8.241439e-02
      endloop
   endfacet
   facet normal -1.000000e+00 -2.775558e-17 0.000000e+00
      outer loop
         vertex -8.100000e-02 -1.709409e-01 8.241439e-02
         vertex -8.100000e-02 -1.450590e-01 3.758561e-02
         vertex -8.100000e-02 -1.580000e-01 3.411810e-02
      endloop
   endfacet
   facet normal -1.000000e+00 -2.775558e-17 0.000000e+00
      outer loop
         vertex -8.100000e-02 -1.709409e-01 8.241439e-02
         vertex -8.100000e-02 -1.580000e-01 3.411810e-02
         vertex -8.100000e-02 -1.709409e-01 3.758561e-02
      endloop
   endfacet
   facet normal -1.000000e+00 -2.775558e-17 0.000000e+00
      outer loop
         vertex -8.100000e-02 -1.709409e-01 3.758561e-02
         vertex -8.100000e-02 -1.804144e-01 4.705905e-02
         vertex -8.100000e-02 -1.709409e-01 8.241439e-02
      endloop
   endfacet
   facet normal -1.000000e+00 -2.775558e-17 0.000000e+00
      outer loop
         vertex -8.100000e-02 -1.709409e-01 8.241439e-02
         vertex -8.100000e-02 -1.804144e-01 4.705905e-02
         vertex -8.100000e-02 -1.838819e-01 6.000000e-02
      endloop
   endfacet
   facet normal -1.000000e+00 -2.775558e-17 0.000000e+00
      outer loop
         vertex -8.100000e-02 -1.709409e-01 8.241439e-02
         vertex -8.100000e-02 -1.838819e-01 6.000000e-02
         vertex -8.100000e-02 -1.804144e-01 7.294095e-02
      endloop
   endfacet
   facet normal -1.000000e+00 -2.775558e-17 -0.000000e+00
      outer loop
         vertex -8.100000e-02 -1.355856e-01 7.294095e-02
         vertex -8.100000e-02 -1.321181e-01 6.000000e-02
         vertex -8.100000e-02 -1.450590e-01 8.241439e-02
      endloop
   endfacet
   facet normal -1.000000e+00 -2.775558e-17 0.000000e+00
      outer loop
         vertex -8.100000e-02 -1.450590e-01 8.241439e-02
         vertex -8.100000e-02 -1.321181e-01 6.000000e-02
         vertex -8.100000e-02 -1.355856e-01 4.705905e-02
      endloop
   endfacet
   facet normal -1.000000e+00 -2.775558e-17 -0.000000e+00
      outer loop
         vertex -8.100000e-02 -1.450590e-01 8.241439e-02
         vertex -8.100000e-02 -1.355856e-01 4.705905e-02
         vertex -8.100000e-02 -1.580000e-01 8.588190e-02
      endloop
   endfacet
   facet normal -1.000000e+00 -2.775558e-17 0.000000e+00
      outer loop
         vertex -8.100000e-02 -1.580000e-01 8.588190e-02
         vertex -8.100000e-02 -1.355856e-01 4.705905e-02
         vertex -8.100000e-02 -1.709409e-01 8.241439e-02
      endloop
   endfacet
   facet normal -7.071068e-01 -2.068410e-16 7.071068e-01
      outer loop
         vertex -4.300000e-02 -2.010000e-01 1.010000e-01
         vertex -2.800000e-02 -2.010000e-01 1.160000e-01
         vertex -4.300000e-02 -1.150000e-01 1.010000e-01
      endloop
   endfacet
   facet normal -7.071068e-01 -4.994587e-17 7.071068e-01
      outer loop
         vertex -4.300000e-02 -1.150000e-01 1.010000e-01
         vertex -2.800000e-02 -2.010000e-01 1.160000e-01
         vertex -2.800000e-02 -1.150000e-01 1.160000e-01
      endloop
   endfacet
   facet normal 7.071068e-01 -1.069355e-17 7.071068e-01
      outer loop
         vertex 2.800000e-02 -2.010000e-01 1.160000e-01
         vertex 4.300000e-02 -2.010000e-01 1.010000e-01
         vertex 2.800000e-02 -1.150000e-01 1.160000e-01
      endloop
   endfacet
   facet normal 7.071068e-01 -1.069355e-17 7.071068e-01
      outer loop
         vertex 2.800000e-02 -1.150000e-01 1.160000e-01
         vertex 4.300000e-02 -2.010000e-01 1.010000e-01
         vertex 4.300000e-02 -1.150000e-01 1.010000e-01
      endloop
   endfacet
   facet normal 7.071068e-01 -7.071068e-01 -3.031971e-17
      outer loop
         vertex 1.915261e-02 -3.317329e-02 -4.999999e-03
         vertex 3.317329e-02 -1.915261e-02 -4.999999e-03
         vertex 1.915261e-02 -3.317329e-02 1.000000e-02
      endloop
   endfacet
   facet normal 7.071068e-01 -7.071068e-01 -3.031971e-17
      outer loop
         vertex 1.915261e-02 -3.317329e-02 1.000000e-02
         vertex 3.317329e-02 -1.915261e-02 -4.999999e-03
         vertex 3.317329e-02 -1.915261e-02 1.000000e-02
      endloop
   endfacet
   facet normal 2.588192e-01 -9.659258e-01 -4.141749e-17
      outer loop
         vertex 1.460314e-09 -3.830522e-02 -4.999999e-03
         vertex 1.915261e-02 -3.317329e-02 -4.999999e-03
         vertex 1.460314e-09 -3.830522e-02 1.000000e-02
      endloop
   endfacet
   facet normal 2.588192e-01 -9.659258e-01 -4.141749e-17
      outer loop
         vertex 1.460314e-09 -3.830522e-02 1.000000e-02
         vertex 1.915261e-02 -3.317329e-02 -4.999999e-03
         vertex 1.915261e-02 -3.317329e-02 1.000000e-02
      endloop
   endfacet
   facet normal -2.588192e-01 -9.659258e-01 -4.141749e-17
      outer loop
         vertex -1.915261e-02 -3.317329e-02 -4.999999e-03
         vertex 1.460314e-09 -3.830522e-02 -4.999999e-03
         vertex -1.915261e-02 -3.317329e-02 1.000000e-02
      endloop
   endfacet
   facet normal -2.588192e-01 -9.659258e-01 -4.141749e-17
      outer loop
         vertex -1.915261e-02 -3.317329e-02 1.000000e-02
         vertex 1.460314e-09 -3.830522e-02 -4.999999e-03
         vertex 1.460314e-09 -3.830522e-02 1.000000e-02
      endloop
   endfacet
   facet normal -7.071068e-01 -7.071068e-01 -3.031971e-17
      outer loop
         vertex -3.317329e-02 -1.915261e-02 -4.999999e-03
         vertex -1.915261e-02 -3.317329e-02 -4.999999e-03
         vertex -3.317329e-02 -1.915261e-02 1.000000e-02
      endloop
   endfacet
   facet normal -7.071068e-01 -7.071068e-01 -3.031971e-17
      outer loop
         vertex -3.317329e-02 -1.915261e-02 1.000000e-02
         vertex -1.915261e-02 -3.317329e-02 -4.999999e-03
         vertex -1.915261e-02 -3.317329e-02 1.000000e-02
      endloop
   endfacet
   facet normal -9.659258e-01 -2.588191e-01 -1.109779e-17
      outer loop
         vertex -3.830522e-02 -1.460314e-09 -4.999999e-03
         vertex -3.317329e-02 -1.915261e-02 -4.999999e-03
         vertex -3.830522e-02 -1.460314e-09 1.000000e-02
      endloop
   endfacet
   facet normal -9.659258e-01 -2.588191e-01 -1.109779e-17
      outer loop
         vertex -3.830522e-02 -1.460314e-09 1.000000e-02
         vertex -3.317329e-02 -1.915261e-02 -4.999999e-03
         vertex -3.317329e-02 -1.915261e-02 1.000000e-02
      endloop
   endfacet
   facet normal -9.659258e-01 2.588190e-01 1.109778e-17
      outer loop
         vertex -3.317329e-02 1.915261e-02 -4.999999e-03
         vertex -3.830522e-02 -1.460314e-09 -4.999999e-03
         vertex -3.317329e-02 1.915261e-02 1.000000e-02
      endloop
   endfacet
   facet normal -9.659258e-01 2.588190e-01 1.109778e-17
      outer loop
         vertex -3.317329e-02 1.915261e-02 1.000000e-02
         vertex -3.830522e-02 -1.460314e-09 -4.999999e-03
         vertex -3.830522e-02 -1.460314e-09 1.000000e-02
      endloop
   endfacet
   facet normal -7.071068e-01 7.071068e-01 3.031971e-17
      outer loop
         vertex -1.915261e-02 3.317329e-02 -4.999999e-03
         vertex -3.317329e-02 1.915261e-02 -4.999999e-03
         vertex -1.915261e-02 3.317329e-02 1.000000e-02
      endloop
   endfacet
   facet normal -7.071068e-01 7.071068e-01 3.031971e-17
      outer loop
         vertex -1.915261e-02 3.317329e-02 1.000000e-02
         vertex -3.317329e-02 1.915261e-02 -4.999999e-03
         vertex -3.317329e-02 1.915261e-02 1.000000e-02
      endloop
   endfacet
   facet normal -2.588190e-01 9.659258e-01 4.141749e-17
      outer loop
         vertex 1.460314e-09 3.830522e-02 -4.999999e-03
         vertex -1.915261e-02 3.317329e-02 -4.999999e-03
         vertex 1.460314e-09 3.830522e-02 1.000000e-02
      endloop
   endfacet
   facet normal -2.588190e-01 9.659258e-01 4.141749e-17
      outer loop
         vertex 1.460314e-09 3.830522e-02 1.000000e-02
         vertex -1.915261e-02 3.317329e-02 -4.999999e-03
         vertex -1.915261e-02 3.317329e-02 1.000000e-02
      endloop
   endfacet
   facet normal 2.588191e-01 9.659258e-01 4.141749e-17
      outer loop
         vertex 1.915261e-02 3.317329e-02 -4.999999e-03
         vertex 1.460314e-09 3.830522e-02 -4.999999e-03
         vertex 1.915261e-02 3.317329e-02 1.000000e-02
      endloop
   endfacet
   facet normal 2.588191e-01 9.659258e-01 4.141749e-17
      outer loop
         vertex 1.915261e-02 3.317329e-02 1.000000e-02
         vertex 1.460314e-09 3.830522e-02 -4.999999e-03
         vertex 1.460314e-09 3.830522e-02 1.000000e-02
      endloop
   endfacet
   facet normal 7.071068e-01 7.071068e-01 3.031971e-17
      outer loop
         vertex 3.317329e-02 1.915261e-02 -4.999999e-03
         vertex 1.915261e-02 3.317329e-02 -4.999999e-03
         vertex 3.317329e-02 1.915261e-02 1.000000e-02
      endloop
   endfacet
   facet normal 7.071068e-01 7.071068e-01 3.031971e-17
      outer loop
         vertex 3.317329e-02 1.915261e-02 1.000000e-02
         vertex 1.915261e-02 3.317329e-02 -4.999999e-03
         vertex 1.915261e-02 3.317329e-02 1.000000e-02
      endloop
   endfacet
   facet normal 9.659258e-01 2.588192e-01 1.109779e-17
      outer loop
         vertex 3.830522e-02 -1.460314e-09 -4.999999e-03
         vertex 3.317329e-02 1.915261e-02 -4.999999e-03
         vertex 3.830522e-02 -1.460314e-09 1.000000e-02
      endloop
   endfacet
   facet normal 9.659258e-01 2.588192e-01 1.109779e-17
      outer loop
         vertex 3.830522e-02 -1.460314e-09 1.000000e-02
         vertex 3.317329e-02 1.915261e-02 -4.999999e-03
         vertex 3.317329e-02 1.915261e-02 1.000000e-02
      endloop
   endfacet
   facet normal 9.659258e-01 -2.588192e-01 -1.109779e-17
      outer loop
         vertex 3.317329e-02 -1.915261e-02 -4.999999e-03
         vertex 3.830522e-02 -1.460314e-09 -4.999999e-03
         vertex 3.317329e-02 -1.915261e-02 1.000000e-02
      endloop
   endfacet
   facet normal 9.659258e-01 -2.588192e-01 -1.109779e-17
      outer loop
         vertex 3.317329e-02 -1.915261e-02 1.000000e-02
         vertex 3.830522e-02 -1.460314e-09 -4.999999e-03
         vertex 3.830522e-02 -1.460314e-09 1.000000e-02
      endloop
   endfacet
   facet normal -1.190119e-33 4.287854e-17 -1.000000e+00
      outer loop
         vertex 1.915261e-02 -3.317329e-02 -4.999999e-03
         vertex 1.460314e-09 -3.830522e-02 -4.999999e-03
         vertex 3.317329e-02 -1.915261e-02 -4.999999e-03
      endloop
   endfacet
   facet normal -1.190119e-33 4.287854e-17 -1.000000e+00
      outer loop
         vertex 3.317329e-02 -1.915261e-02 -4.999999e-03
         vertex 1.460314e-09 -3.830522e-02 -4.999999e-03
         vertex -1.915261e-02 -3.317329e-02 -4.999999e-03
      endloop
   endfacet
   facet normal -1.190119e-33 4.287854e-17 -1.000000e+00
      outer loop
         vertex 3.830522e-02 -1.460314e-09 -4.999999e-03
         vertex 3.317329e-02 -1.915261e-02 -4.999999e-03
         vertex 3.317329e-02 1.915261e-02 -4.999999e-03
      endloop
   endfacet
   facet normal -1.190119e-33 4.287854e-17 -1.000000e+00
      outer loop
         vertex 3.317329e-02 1.915261e-02 -4.999999e-03
         vertex 3.317329e-02 -1.915261e-02 -4.999999e-03
         vertex -1.915261e-02 -3.317329e-02 -4.999999e-03
      endloop
   endfacet
   facet normal -1.190119e-33 4.287854e-17 -1.000000e+00
      outer loop
         vertex 3.317329e-02 1.915261e-02 -4.999999e-03
         vertex -1.915261e-02 -3.317329e-02 -4.999999e-03
         vertex 1.915261e-02 3.317329e-02 -4.999999e-03
      endloop
   endfacet
   facet normal -1.190119e-33 4.287854e-17 -1.000000e+00
      outer loop
         vertex 1.915261e-02 3.317329e-02 -4.999999e-03
         vertex -1.915261e-02 -3.317329e-02 -4.999999e-03
         vertex -3.317329e-02 -1.915261e-02 -4.999999e-03
      endloop
   endfacet
   facet normal -1.190119e-33 4.287854e-17 -1.000000e+00
      outer loop
         vertex 1.915261e-02 3.317329e-02 -4.999999e-03
         vertex -3.317329e-02 -1.915261e-02 -4.999999e-03
         vertex -3.830522e-02 -1.460314e-09 -4.999999e-03
      endloop
   endfacet
   facet normal -1.190119e-33 4.287854e-17 -1.000000e+00
      outer loop
         vertex -3.830522e-02 -1.460314e-09 -4.999999e-03
         vertex -3.317329e-02 1.915261e-02 -4.999999e-03
         vertex 1.915261e-02 3.317329e-02 -4.999999e-03
      endloop
   endfacet
   facet normal -1.190119e-33 4.287854e-17 -1.000000e+00
      outer loop
         vertex 1.915261e-02 3.317329e-02 -4.999999e-03
         vertex -3.317329e-02 1.915261e-02 -4.999999e-03
         vertex -1.915261e-02 3.317329e-02 -4.999999e-03
      endloop
   endfacet
   facet normal -1.190119e-33 4.287854e-17 -1.000000e+00
      outer loop
         vertex 1.915261e-02 3.317329e-02 -4.999999e-03
         vertex -1.915261e-02 3.317329e-02 -4.999999e-03
         vertex 1.460314e-09 3.830522e-02 -4.999999e-03
      endloop
   endfacet
   facet normal -7.071067e-01 1.069356e-17 -7.071068e-01
      outer loop
         vertex -4.300000e-02 4.300000e-02 1.350000e-02
         vertex -3.950000e-02 4.300000e-02 1.000000e-02
         vertex -4.300000e-02 -2.010000e-01 1.350000e-02
      endloop
   endfacet
   facet normal -7.071067e-01 1.069356e-17 -7.071068e-01
      outer loop
         vertex -4.300000e-02 -2.010000e-01 1.350000e-02
         vertex -3.950000e-02 4.300000e-02 1.000000e-02
         vertex -3.950000e-02 -2.010000e-01 1.000000e-02
      endloop
   endfacet
   facet normal 7.071068e-01 4.994587e-17 -7.071068e-01
      outer loop
         vertex 3.950000e-02 4.300000e-02 1.000000e-02
         vertex 4.300000e-02 4.300000e-02 1.350000e-02
         vertex 3.950000e-02 -2.010000e-01 1.000000e-02
      endloop
   endfacet
   facet normal 7.071068e-01 4.994587e-17 -7.071068e-01
      outer loop
         vertex 3.950000e-02 -2.010000e-01 1.000000e-02
         vertex 4.300000e-02 4.300000e-02 1.350000e-02
         vertex 4.300000e-02 -2.010000e-01 1.350000e-02
      endloop
   endfacet
endsolid